<svg version="1.2" xmlns="http://www.w3.org/2000/svg" viewBox="0 0 537 537" width="537" height="537">
	<title>UGR-MARCA-01-color-svg</title>
	<defs>
		<clipPath clipPathUnits="userSpaceOnUse" id="cp1">
			<path d="m-257-90h1052.36v744.1h-1052.36z"/>
		</clipPath>
		<clipPath clipPathUnits="userSpaceOnUse" id="cp2">
			<path d="m239.35 222.69c4.69 11.53 15.87 19.73 29.01 20.03v-20.03z"/>
		</clipPath>
		<clipPath clipPathUnits="userSpaceOnUse" id="cp3">
			<path d="m269.95 204.95v16.02h29.69c0.81-2.41 1.36-4.93 1.59-7.55v-8.47z"/>
		</clipPath>
		<clipPath clipPathUnits="userSpaceOnUse" id="cp4">
			<path d="m-257-90h1052.36v744.1h-1052.36z"/>
		</clipPath>
	</defs>
	<style>
		.s0 { fill: #231f20 } 
		.s1 { fill: #ffffff } 
		.s2 { fill: #fccb06 } 
		.s3 { fill: #d62934 } 
		.s4 { fill: #3580cb } 
		.s5 { fill: #2ba543 } 
	</style>
	<g id="g2993">
		<g id="g2995">
			<g id="Clip-Path: g2997" clip-path="url(#cp1)">
				<g id="g2997">
					<path id="path3003" class="s0" d="m204.9 270.6c-3.6-1.1-7.7-2.4-15.5 0.7v3.6l1-0.4c6.9-2.7 10.1-1.7 13.5-0.6 3.2 1 6.6 2 12.5-0.1v-3.6l-0.8 0.3c-5.1 1.9-7.7 1.1-10.7 0.1z"/>
					<path id="path3005" class="s0" d="m204.9 278.4c-3.6-1.2-7.7-2.4-15.5 0.6v3.6l1-0.4c6.9-2.7 10.1-1.7 13.5-0.6 3.2 1 6.6 2.1 12.5-0.1v-3.5l-0.8 0.3c-5.1 1.8-7.7 1-10.7 0.1z"/>
					<path id="path3007" class="s0" d="m333.4 270.6c-3.1 1-5.7 1.8-10.7-0.1l-0.9-0.3v3.6c5.9 2.1 9.3 1.1 12.6 0.1 3.4-1.1 6.6-2.1 13.4 0.6l1.1 0.4v-3.6c-7.9-3.1-11.9-1.8-15.5-0.7z"/>
					<path id="path3009" class="s0" d="m333.3 278.4c-3 0.9-5.6 1.7-10.6-0.1l-0.9-0.3v3.5c5.9 2.2 9.3 1.1 12.6 0.1 3.4-1.1 6.6-2.1 13.4 0.6l1.1 0.4v-3.6c-7.9-3-12-1.8-15.6-0.6z"/>
					<path id="path3011" class="s0" d="m367.9 171.9c0 0-0.7 0.4-1.8 1q-0.4 0.3-1 0.6-0.5 0.2-1.1 0.5c-0.8 0.4-1.7 0.8-2.8 1.1q-0.7 0.3-1.6 0.6-0.8 0.2-1.8 0.4c-1.2 0.4-2.5 0.4-3.9 0.6-1.3 0.1-2.7 0.2-4.2 0-1.4 0-2.8-0.3-4.2-0.5-1.4-0.4-2.8-0.6-4.2-1.2-1.3-0.4-2.5-1.1-3.8-1.6-0.6-0.5-1.4-0.9-2-1.3q0.1-0.9 0.2-1.7 1 0.3 2 0.6 4.4 1.3 8.9 1.3c5.9 0.1 11.6-1.3 16.9-4.2q2.3-1.2 4.3-2.8 0.2-0.1 0.3-0.2c0.6-0.6 1-1.4 1.1-2.4 0-1.8-1.4-3.3-3.2-3.3q-0.5 0-1 0.1-0.2 0.1-0.4 0.2-0.3 0.1-0.6 0.3-0.1 0.2-0.3 0.3-1.6 1.2-3.4 2.2c-6.4 3.5-13.8 4.3-20.8 2.3q-1.7-0.5-3.3-1.2 0.1-0.8 0.1-1.6 0-0.1 0-0.2c0.8 0.1 1.6 0.3 2.4 0.4 1.5 0.1 3 0.3 4.5 0.2 1.6 0.1 3.1-0.2 4.7-0.3 1.5-0.4 3-0.6 4.5-1.1 1.5-0.4 2.8-1.1 4.2-1.7 1.2-0.7 2.5-1.3 3.6-2.1q0.8-0.5 1.6-1 0.7-0.6 1.4-1.2c0.9-0.7 1.6-1.5 2.3-2.2q0.5-0.5 0.9-0.9 0.4-0.5 0.7-0.9c0.8-1 1.3-1.6 1.3-1.6 0.1-0.2 0.1-0.5-0.1-0.7-0.2-0.2-0.5-0.2-0.7 0.1 0 0-0.5 0.5-1.4 1.5q-0.3 0.4-0.7 0.8-0.5 0.4-1 0.8c-0.6 0.6-1.3 1.3-2.2 1.9q-0.7 0.5-1.4 1.1-0.8 0.4-1.6 0.9c-1 0.7-2.3 1.2-3.5 1.8-1.3 0.4-2.6 1-4 1.3-1.4 0.4-2.8 0.5-4.3 0.8-1.4 0-2.8 0.2-4.3 0.1-1.4 0-2.7-0.3-4.1-0.5-1-0.2-2-0.4-2.9-0.7q-0.1-0.9-0.1-1.8 2.8 0.2 5.8-0.1 1.4-0.1 2.8-0.4c8.8-1.6 16.4-6.6 21.5-13.9q0.1-0.1 0.2-0.2c0.4-0.6 0.6-1.4 0.5-2.1-0.2-1.8-1.8-3.1-3.6-2.9q-0.5 0-0.9 0.2-0.2 0.1-0.4 0.2-0.5 0.3-0.9 0.8-0.1 0.2-0.2 0.3c-4.1 5.9-10.3 9.9-17.4 11.2-2.8 0.6-5.6 0.6-8.3 0.3q-0.1-0.8-0.3-1.7c1.2 0 2.4-0.3 3.6-0.5 1.5-0.3 3-0.6 4.4-1.2 1.5-0.5 2.9-1.2 4.3-1.9 1.3-0.8 2.7-1.5 3.9-2.5 1.3-0.9 2.3-1.9 3.4-2.9 1-1.1 2-2 2.8-3.1q0.6-0.8 1.1-1.6 0.5-0.8 1-1.5c0.6-1 1-2 1.4-2.8q0.4-0.7 0.6-1.2 0.2-0.6 0.4-1c0.4-1.3 0.7-2 0.7-2 0.1-0.2 0-0.5-0.3-0.6-0.3-0.1-0.6 0-0.7 0.2 0 0-0.3 0.7-0.8 1.9q-0.2 0.5-0.4 1-0.3 0.6-0.6 1.1c-0.5 0.8-0.9 1.7-1.6 2.6q-0.4 0.7-1 1.4-0.5 0.7-1.1 1.4c-0.8 1-1.8 1.8-2.8 2.8-1.1 0.8-2.1 1.8-3.4 2.5-1.1 0.9-2.4 1.5-3.7 2.1-1.4 0.6-2.7 1.2-4 1.5-1.4 0.5-2.8 0.7-4.1 1-1.3 0-2.6 0.3-3.8 0.2q-0.2-0.8-0.5-1.7c3.6-0.8 7.1-2.3 10.3-4.4 7.1-4.6 12.2-11.5 14.4-19.6q0.1-0.5 0.2-1.1 0.1-0.3 0-0.7c-0.2-1.8-1.9-3-3.7-2.7q-0.5 0-0.9 0.3-0.2 0-0.4 0.2c-0.6 0.4-1.1 1-1.3 1.7q-0.1 0.3-0.2 0.5c-1.7 6.6-5.8 12.2-11.6 16-2.7 1.7-5.7 3-8.8 3.7q-0.3-0.8-0.7-1.6 0 0 0.1 0 0.8-0.4 1.7-0.8c1.3-0.6 2.5-1.4 3.7-2.2 1.2-0.9 2.5-1.8 3.5-2.9 1.2-1 2.2-2.2 3.3-3.3 0.9-1.3 1.9-2.5 2.6-3.9 0.8-1.3 1.4-2.7 2-4 0.5-1.4 1.1-2.6 1.3-3.9q0.3-1 0.5-1.9 0.1-0.9 0.3-1.8c0.2-1.1 0.2-2.2 0.2-3.2q0.1-0.7 0.1-1.3 0-0.6-0.1-1.1c0-1.3-0.1-2-0.1-2 0-0.3-0.2-0.5-0.5-0.5-0.3 0-0.5 0.2-0.5 0.5 0 0 0 0.8 0 2.1q0 0.5 0 1.1-0.1 0.5-0.2 1.2c0 0.9-0.1 1.9-0.4 2.9q-0.2 0.9-0.3 1.7-0.3 0.9-0.6 1.8c-0.3 1.2-0.9 2.4-1.4 3.6-0.7 1.2-1.3 2.5-2.1 3.7-0.8 1.2-1.8 2.3-2.7 3.4-1 1-2 2.1-3.1 2.9-1.1 1-2.3 1.7-3.4 2.4-1.2 0.7-2.3 1.4-3.4 1.8q-0.4 0.2-0.8 0.3c0.3-1.9 1.2-3.1 2-3.9q2.9-2.7 5.2-6.1c5.2-7.4 7.1-16.4 5.4-25.3 0-0.3-0.2-1.1-0.2-1.2q0-0.2-0.1-0.4c-0.5-1.5-2.1-2.5-3.7-2.2-1.7 0.3-2.9 2-2.6 3.8q0 0 0 0 0.2 0.6 0.3 1.2c1.3 7.2-0.3 14.4-4.4 20.5q-0.7 1-1.5 2c-2.9 3.4-6.7 6.1-11 7.8q0.3-0.6 0.5-1.2c0.1-0.6 0.2-1.1 0.3-1.6q0.1-0.8 0-1.4c0.1-0.4 0-0.8 0-1.2q0-0.5-0.1-0.8c-0.1-0.5-0.2-0.8-0.2-0.8 0 0 0 0.3-0.1 0.8q0 0.3-0.2 0.8c0 0.3-0.1 0.7-0.3 1q-0.2 0.6-0.5 1.2c-0.1 0.4-0.4 0.8-0.7 1.2-0.3 0.4-0.5 0.8-0.9 1.1-0.3 0.4-0.7 0.7-1 1-0.4 0.2-0.8 0.5-1.2 0.7-0.4 0.3-0.8 0.4-1.2 0.6q-0.4 0.1-0.8 0.3-1.7 0.2-3.5 0.2 0 0-0.1 0 0 0 0 0-0.4 0-0.7 0.1 0 0 0 0-0.3 0-0.6 0.1 0 0 0 0-0.3 0-0.5 0.1-0.1 0-0.1 0.1-0.3 0.1-0.5 0.2-1.1 0.5-1.8 1.5c-0.7 0.9-1.1 2-1.1 3.3 0 0.9 0.2 1.8 0.6 2.5 1.1 1.6 1.8 3.5 2 5.5q0 0.5 0 1c0 6.3-5.1 11.4-11.5 11.4h-1.1c-1.3 0-10.6-0.8-10.6-15.3q0-0.5 0-1 0.2 0.2 0.4 0.4c0.5 0.2 0.9 0.5 1.3 0.7 0.4 0.2 0.8 0.4 1.2 0.5 0.4 0.1 0.8 0.3 1.2 0.3q0.3 0.1 0.6 0.1 0.2 0 0.5 0 0.5 0.1 0.9 0.1 0.2-0.1 0.4-0.1 0.1 0 0.3 0 0.6-0.1 0.6-0.1-0.1 0-0.6-0.1-0.2 0-0.3-0.1-0.2 0-0.3-0.1-0.4-0.1-0.8-0.3-0.3 0-0.5-0.1-0.2-0.2-0.4-0.3c-0.3-0.1-0.6-0.4-0.9-0.6-0.3-0.2-0.6-0.4-0.8-0.7-0.3-0.3-0.5-0.6-0.8-0.9-0.2-0.3-0.4-0.6-0.5-0.9-0.2-0.3-0.3-0.7-0.4-1-0.1-0.3-0.2-0.6-0.2-0.9q-0.1-0.2-0.1-0.4 0-0.2 0-0.4c-0.1-0.2 0-0.4 0-0.6q0-0.1 0-0.2 0-0.2 0-0.3 0-0.2 0.1-0.3c2.1-8.6 7.9-15.8 15.5-19.8q0 0 0 0.1c-0.1 0.4-0.1 0.9-0.2 1.3 0 0.5 0 0.9 0 1.3q0.1 0.2 0.1 0.5 0 0.3 0.1 0.5 0.1 0.5 0.2 0.9 0.1 0.2 0.1 0.4 0.1 0.1 0.1 0.2 0.3 0.6 0.3 0.6 0 0-0.1-0.6 0-0.1 0-0.3 0-0.2 0-0.4 0-0.3 0.1-0.8 0-0.2 0.1-0.5 0-0.2 0.1-0.5c0.1-0.3 0.2-0.6 0.3-1 0.2-0.3 0.3-0.6 0.6-1 0.1-0.3 0.4-0.6 0.6-0.9 0.3-0.2 0.5-0.5 0.8-0.7 0.2-0.3 0.5-0.5 0.8-0.7 0.3-0.1 0.5-0.3 0.8-0.4q0 0 0.1 0 3.4-1.2 7.2-1.4c0.4-0.1 1.4-0.1 2.1-0.1 2.7 0 5.4 0.3 7.9 0.9 1.7 0.4 2.3 0.9 3.3 2.3 3.3-7.2-2.8-11.5-6.6-11.5 0 0-1.9-3.4-12.8-3.4-6.1 0-10.2 3.2-12.8 3.9-2.4 0.7-9.7 0.1-9.7 0.1 1.8 1.9 2.6 3.3 3.7 4q-0.7 0.6-1.5 1.3-0.1 0-0.1 0.1-0.2 0.1-0.4 0.2-0.2 0.1-0.4 0.2c-0.3 0.2-0.6 0.3-0.9 0.4-0.4 0.1-0.7 0.2-1.1 0.2-0.4 0.1-0.7 0.1-1.1 0.2-0.4-0.1-0.8-0.1-1.2-0.1-0.4-0.1-0.7-0.2-1.1-0.2-0.3-0.2-0.7-0.3-1-0.4q-0.3-0.1-0.5-0.2-0.2-0.1-0.4-0.3-0.4-0.2-0.7-0.4-0.2-0.1-0.3-0.2-0.1-0.2-0.2-0.2-0.4-0.4-0.5-0.4 0.1 0 0.4 0.4 0.1 0.2 0.2 0.3 0.1 0.1 0.2 0.3 0.3 0.3 0.6 0.6 0.2 0.2 0.4 0.4 0.2 0.1 0.4 0.3c0.3 0.2 0.7 0.4 1 0.7 0.4 0.1 0.8 0.3 1.2 0.5 0.4 0.2 0.9 0.3 1.3 0.4q0.5 0.1 1 0.1c-2.4 2.2-4.8 4.8-7 8.1-2.8 3.8-5.2 7.9-7 12-1.8-4.1-4.1-8.2-6.9-11.9-2.2-3.4-4.7-6-7-8.2q0.5 0 0.9-0.1c0.5-0.1 0.9-0.2 1.3-0.4 0.5-0.2 0.8-0.4 1.2-0.5 0.4-0.3 0.7-0.5 1-0.7q0.3-0.2 0.5-0.3 0.2-0.2 0.3-0.4 0.4-0.3 0.6-0.6 0.2-0.2 0.3-0.3 0.1-0.1 0.2-0.3 0.3-0.4 0.3-0.4 0 0-0.4 0.4-0.1 0-0.3 0.2-0.1 0.1-0.2 0.2-0.3 0.2-0.7 0.4-0.2 0.2-0.5 0.3-0.2 0.1-0.4 0.2c-0.3 0.1-0.7 0.2-1.1 0.4-0.3 0-0.7 0.1-1.1 0.2-0.4 0-0.7 0-1.1 0.1-0.4-0.1-0.8-0.1-1.2-0.2-0.3 0-0.7-0.1-1-0.2-0.3-0.1-0.7-0.2-0.9-0.4q-0.3-0.1-0.5-0.2-0.1-0.1-0.3-0.2-0.1-0.1-0.2-0.1-0.7-0.7-1.4-1.3c1.1-0.7 1.9-2.1 3.7-4 0 0-7.3 0.6-9.8-0.1-2.5-0.7-6.6-3.9-12.7-3.9-10.9 0-12.9 3.4-12.9 3.4-3.7 0-9.8 4.3-6.5 11.5 1-1.4 1.5-1.9 3.2-2.3 2.6-0.6 5.2-0.9 8-0.9 0.7 0 1.4 0 2.1 0.1q3.7 0.2 7.1 1.3 0.1 0.1 0.1 0.1c0.3 0.1 0.6 0.3 0.9 0.4 0.2 0.2 0.5 0.4 0.8 0.7 0.3 0.2 0.5 0.5 0.8 0.7 0.2 0.3 0.4 0.6 0.6 0.9 0.2 0.4 0.4 0.7 0.5 1 0.1 0.4 0.3 0.7 0.4 1q0 0.3 0.1 0.5 0 0.3 0.1 0.5 0 0.5 0 0.8 0 0.2 0.1 0.4-0.1 0.2-0.1 0.3 0 0.6 0 0.6 0 0 0.2-0.6 0.1-0.1 0.1-0.2 0.1-0.2 0.2-0.4 0.1-0.4 0.2-0.9 0-0.2 0.1-0.5 0-0.3 0-0.5c0.1-0.4 0-0.8 0-1.3 0-0.4 0-0.9-0.2-1.3q0-0.1 0-0.1c7.7 4 13.5 11.1 15.6 19.7q0 0.2 0 0.4 0 0.1 0.1 0.3 0 0.1 0 0.2c0 0.2 0 0.4 0 0.6q0 0.2 0 0.4-0.1 0.2-0.1 0.4c0 0.3-0.2 0.6-0.2 0.9-0.2 0.3-0.3 0.7-0.4 1-0.2 0.3-0.4 0.6-0.6 0.9-0.2 0.3-0.4 0.6-0.7 0.9-0.3 0.3-0.6 0.5-0.8 0.7-0.3 0.2-0.6 0.5-0.9 0.6q-0.3 0.1-0.5 0.3-0.2 0.1-0.4 0.1-0.4 0.2-0.8 0.3-0.2 0.1-0.3 0.1-0.2 0.1-0.3 0.1c-0.4 0.1-0.6 0.1-0.6 0.1 0 0 0.2 0 0.6 0.1q0.1 0 0.3 0 0.2 0 0.4 0.1 0.4 0 0.9-0.1 0.2 0 0.5 0 0.2 0 0.5-0.1c0.4 0 0.8-0.2 1.2-0.3 0.4-0.1 0.9-0.3 1.3-0.5 0.4-0.2 0.8-0.5 1.2-0.7q0.2-0.2 0.5-0.4 0 0.5 0 1c0 14.5-9.4 15.3-10.7 15.3h-1.1c-6.3 0-11.4-5.1-11.4-11.4q0-0.5 0-1c0.2-2 0.9-3.9 1.9-5.5 0.4-0.7 0.7-1.6 0.7-2.5 0-1.3-0.4-2.4-1.1-3.3-0.5-0.6-1.1-1.1-1.8-1.5q-0.3-0.1-0.5-0.2-0.1-0.1-0.1-0.1-0.2-0.1-0.5-0.1 0 0-0.1 0-0.2-0.1-0.5-0.1 0 0 0 0-0.4-0.1-0.7-0.1 0 0-0.1 0 0 0 0 0-1.8 0-3.6-0.2-0.3-0.2-0.7-0.3c-0.4-0.2-0.8-0.3-1.2-0.6-0.4-0.2-0.8-0.5-1.2-0.7-0.4-0.3-0.8-0.6-1.1-1-0.3-0.3-0.6-0.7-0.9-1.1-0.2-0.4-0.5-0.8-0.7-1.2q-0.3-0.6-0.5-1.2c-0.1-0.3-0.2-0.7-0.3-1q-0.1-0.5-0.2-0.8c0-0.5-0.1-0.8-0.1-0.8 0 0 0 0.3-0.1 0.8q-0.1 0.3-0.1 0.8c-0.1 0.4-0.1 0.8-0.1 1.2q0 0.6 0.1 1.4c0 0.5 0.2 1 0.3 1.6q0.2 0.6 0.4 1.2c-4.2-1.7-8-4.4-10.9-7.8q-0.8-1-1.5-2c-4.2-6.1-5.7-13.3-4.4-20.5q0.1-0.6 0.2-1.2 0 0 0 0c0.4-1.8-0.8-3.5-2.6-3.8-1.6-0.3-3.1 0.7-3.6 2.2q-0.1 0.2-0.2 0.4c0 0.1-0.1 0.9-0.2 1.2-1.6 8.9 0.3 17.9 5.4 25.3q2.3 3.4 5.3 6.1c0.8 0.8 1.7 2 2 3.9q-0.4-0.1-0.8-0.3c-1.2-0.4-2.3-1.1-3.5-1.8-1.1-0.7-2.3-1.4-3.3-2.4-1.2-0.8-2.1-1.9-3.2-2.9-0.9-1.1-1.9-2.2-2.6-3.4-0.9-1.2-1.4-2.5-2.1-3.7-0.5-1.2-1.1-2.4-1.5-3.6q-0.2-0.9-0.5-1.8-0.2-0.8-0.4-1.7c-0.2-1-0.3-2-0.4-2.9q-0.1-0.7-0.1-1.2 0-0.6 0-1.1c0-1.3 0-2.1 0-2.1 0-0.3-0.2-0.5-0.5-0.5-0.3 0-0.6 0.2-0.6 0.5 0 0 0 0.7-0.1 2q0 0.5 0 1.1 0 0.6 0 1.3c0 1 0.1 2.1 0.3 3.2q0.1 0.9 0.3 1.8 0.2 0.9 0.4 1.9c0.3 1.3 0.9 2.5 1.3 3.9 0.7 1.3 1.2 2.7 2.1 4 0.7 1.4 1.7 2.6 2.6 3.9 1 1.1 2 2.3 3.2 3.3 1.1 1.1 2.4 2 3.5 2.9 1.3 0.8 2.5 1.6 3.7 2.2q0.9 0.4 1.8 0.8 0 0 0 0-0.3 0.8-0.6 1.6c-3.1-0.7-6.1-2-8.9-3.7-5.7-3.8-9.8-9.4-11.6-16q0-0.2-0.1-0.5c-0.2-0.7-0.7-1.3-1.3-1.7q-0.2-0.2-0.4-0.2-0.4-0.3-1-0.3c-1.7-0.3-3.4 0.9-3.7 2.7q0 0.4 0 0.7c0.1 0.4 0.2 0.7 0.3 1.1 2.2 8.1 7.2 15 14.3 19.6 3.2 2.1 6.7 3.6 10.3 4.4q-0.2 0.9-0.4 1.7c-1.2 0.1-2.5-0.2-3.9-0.2-1.3-0.3-2.7-0.5-4-1-1.4-0.3-2.7-0.9-4-1.5-1.3-0.6-2.6-1.2-3.8-2.1-1.2-0.7-2.3-1.7-3.4-2.5-0.9-1-1.9-1.8-2.7-2.8q-0.6-0.7-1.2-1.4-0.5-0.7-1-1.4c-0.6-0.9-1.1-1.8-1.5-2.6q-0.3-0.5-0.6-1.1-0.3-0.5-0.4-1c-0.6-1.2-0.9-1.9-0.9-1.9-0.1-0.2-0.4-0.3-0.6-0.2-0.3 0.1-0.4 0.4-0.3 0.6 0 0 0.2 0.7 0.7 2q0.1 0.4 0.3 1 0.3 0.5 0.6 1.2c0.4 0.8 0.9 1.8 1.5 2.8q0.4 0.7 0.9 1.5 0.6 0.8 1.2 1.6c0.7 1.1 1.8 2 2.7 3.1 1.1 1 2.2 2 3.5 2.9 1.2 1 2.5 1.7 3.9 2.5 1.4 0.7 2.8 1.4 4.3 1.9 1.4 0.6 2.9 0.9 4.3 1.2 1.3 0.2 2.5 0.5 3.7 0.5q-0.2 0.9-0.4 1.7c-2.7 0.3-5.5 0.3-8.2-0.3-7.1-1.3-13.3-5.3-17.4-11.2q-0.1-0.1-0.2-0.3-0.4-0.5-0.9-0.8-0.2-0.1-0.4-0.2-0.4-0.2-1-0.2c-1.7-0.2-3.3 1.1-3.5 2.9-0.1 0.7 0.1 1.5 0.5 2.1q0.1 0.1 0.1 0.2c5.1 7.3 12.8 12.3 21.6 13.9q1.4 0.3 2.8 0.4 2.9 0.3 5.8 0.1-0.1 0.9-0.1 1.8c-0.9 0.3-2 0.5-3 0.7-1.3 0.2-2.7 0.5-4.1 0.5-1.4 0.1-2.8-0.1-4.3-0.1-1.4-0.3-2.9-0.4-4.2-0.8-1.4-0.3-2.7-0.9-4-1.3-1.2-0.6-2.5-1.1-3.5-1.8q-0.9-0.5-1.6-0.9-0.7-0.6-1.4-1.1c-0.9-0.6-1.6-1.3-2.3-1.9q-0.5-0.4-0.9-0.8-0.4-0.4-0.7-0.8c-0.9-1-1.4-1.5-1.4-1.5-0.2-0.3-0.5-0.3-0.7-0.1-0.3 0.2-0.3 0.5-0.1 0.7 0 0 0.4 0.6 1.3 1.6q0.3 0.4 0.6 0.9 0.5 0.4 1 0.9c0.6 0.7 1.4 1.5 2.3 2.2q0.6 0.6 1.4 1.2 0.7 0.5 1.6 1c1 0.8 2.3 1.4 3.6 2.1 1.3 0.6 2.7 1.3 4.2 1.7 1.4 0.5 3 0.7 4.5 1.1 1.5 0.1 3.1 0.4 4.6 0.3 1.6 0.1 3.1-0.1 4.6-0.2 0.8-0.1 1.6-0.3 2.4-0.4q0 0.1 0 0.2 0 0.8 0 1.6-1.6 0.7-3.3 1.2c-7 2-14.4 1.2-20.8-2.3q-1.8-1-3.4-2.2-0.1-0.1-0.3-0.3-0.2-0.2-0.6-0.3-0.1-0.1-0.3-0.2-0.5-0.1-1-0.1c-1.8 0-3.2 1.5-3.2 3.3 0 1 0.4 1.8 1.1 2.4q0.1 0.1 0.2 0.2 2.1 1.6 4.4 2.8c5.2 2.9 11 4.3 16.8 4.2q4.5 0 9-1.3 0.9-0.3 1.9-0.6 0.1 0.8 0.3 1.7c-0.7 0.4-1.4 0.8-2.1 1.3-1.2 0.5-2.4 1.2-3.8 1.6-1.3 0.6-2.7 0.8-4.1 1.2-1.4 0.2-2.9 0.5-4.3 0.5-1.4 0.2-2.8 0.1-4.2 0-1.3-0.2-2.7-0.2-3.9-0.6q-0.9-0.2-1.8-0.4-0.8-0.3-1.6-0.6c-1.1-0.3-1.9-0.7-2.8-1.1q-0.6-0.3-1.1-0.5-0.5-0.3-0.9-0.6c-1.2-0.6-1.8-1-1.8-1-0.2-0.2-0.5-0.1-0.7 0.1-0.2 0.3-0.1 0.6 0.1 0.8 0 0 0.7 0.4 1.8 1.1q0.4 0.3 0.9 0.6 0.5 0.3 1.1 0.6c0.9 0.5 1.8 1 2.9 1.4q0.8 0.3 1.7 0.7 0.9 0.3 1.8 0.5c1.3 0.5 2.7 0.6 4.1 0.9 1.4 0.1 2.9 0.4 4.5 0.3 1.5 0.1 3-0.1 4.6-0.3 1.5-0.3 3.1-0.5 4.6-1 1.5-0.4 2.8-1.1 4.2-1.6q0.7-0.4 1.3-0.7 0.2 0.9 0.4 1.8c-4.5 3.6-9.9 5.7-15.7 6-4 0.2-7.9-0.5-11.5-2q-0.3-0.1-0.5-0.2-0.1 0-0.1 0c-0.5-0.2-1.1-0.2-1.7-0.1-1.7 0.4-2.8 2.2-2.4 3.9 0.2 1.1 1 2 1.9 2.3 4.6 1.9 9.5 2.8 14.6 2.5q2.9-0.1 5.7-0.7c4.2-1 8.1-2.7 11.6-5q0.3 0.8 0.6 1.6c-0.5 0.5-1 1-1.6 1.6-1 0.8-2 1.8-3.2 2.5-1.1 0.9-2.4 1.5-3.7 2.3-1.3 0.5-2.6 1.2-4 1.5-1.3 0.6-2.7 0.8-4.1 1.1-1.3 0.1-2.6 0.4-3.9 0.4q-0.9 0-1.8 0-0.9 0-1.7-0.1c-1.1 0-2.1-0.2-3-0.4q-0.6-0.1-1.2-0.2-0.6-0.2-1.1-0.3c-1.2-0.4-2-0.6-2-0.6-0.2 0-0.5 0.1-0.6 0.4-0.1 0.2 0.1 0.5 0.3 0.6 0 0 0.7 0.3 2 0.7q0.5 0.2 1 0.4 0.6 0.1 1.3 0.3c0.9 0.2 2 0.5 3.1 0.6q0.9 0.1 1.8 0.2 0.9 0 1.9 0.1c1.4 0.1 2.8-0.1 4.2-0.2 1.4-0.3 2.9-0.4 4.4-0.9 1.5-0.3 2.9-0.9 4.4-1.4 1.4-0.7 2.9-1.4 4.1-2.2 1.4-0.8 2.6-1.8 3.8-2.6q0.4-0.4 0.8-0.8 0.3 0.9 0.7 1.7-0.6 0.8-1.3 1.6c-4.9 5.5-11.6 8.7-18.9 9.2q-2.6 0.1-5.2-0.2-0.2-0.1-0.4-0.1-0.5 0-1 0.1c-1.8 0.4-2.9 2.2-2.4 3.9 0.2 1.2 1.2 2.1 2.3 2.4q0.4 0.1 0.7 0.1 3.2 0.4 6.4 0.2 3-0.1 5.7-0.8c6.9-1.6 12.8-5.2 17.4-10.2q0.4 0.8 0.9 1.5c-0.3 0.6-0.7 1.2-1.1 1.9-0.8 1.1-1.6 2.2-2.6 3.2-0.9 1.1-2 2-3.1 3-1.2 0.9-2.3 1.8-3.6 2.5-1.2 0.8-2.5 1.3-3.7 1.9-1.3 0.4-2.5 1-3.7 1.2q-0.9 0.3-1.8 0.5-0.9 0.1-1.7 0.2c-1.1 0.3-2.1 0.3-3 0.3q-0.6 0.1-1.2 0.1-0.6 0-1.1-0.1c-1.3 0-2.1-0.1-2.1-0.1-0.2 0-0.5 0.2-0.5 0.5 0 0.3 0.2 0.5 0.5 0.6 0 0 0.7 0.1 2 0.2q0.5 0 1.1 0.1 0.6 0 1.3 0c1 0 2 0.1 3.2-0.1q0.8-0.1 1.8-0.2 0.9-0.1 1.9-0.3c1.3-0.2 2.6-0.7 4-1.1 1.3-0.6 2.8-1.1 4.1-1.9 1.4-0.6 2.7-1.5 4-2.4 1.2-1 2.5-1.9 3.5-3 1.2-1 2.1-2.3 3.1-3.4q0.3-0.4 0.6-0.8 0.5 0.7 1.1 1.5c-1.1 2.4-2.5 4.6-4.3 6.7-4.6 5.4-11 8.7-18 9.4q-0.3 0-0.6 0.1-0.1 0-0.2 0c-1.7 0.5-2.8 2.2-2.3 4 0.4 1.5 1.7 2.5 3.2 2.4q0.2 0 0.4 0 2.6-0.3 5.1-0.9c9.1-2.3 16.7-8.3 21.2-16.3 0.4 0.5 0.8 0.9 1.3 1.4-0.3 1.1-0.8 2.2-1.2 3.3-0.6 1.2-1.1 2.5-1.8 3.5q-0.4 0.8-0.9 1.6-0.5 0.7-1 1.3c-0.7 1-1.3 1.7-2 2.3q-0.4 0.5-0.8 1-0.4 0.3-0.8 0.7c-1 0.8-1.6 1.3-1.6 1.3-0.2 0.2-0.2 0.5 0 0.8 0.2 0.2 0.5 0.2 0.7 0 0 0 0.6-0.4 1.6-1.2q0.4-0.3 0.9-0.7 0.4-0.4 0.9-0.9c0.7-0.7 1.5-1.4 2.2-2.3q0.6-0.7 1.2-1.4 0.5-0.8 1.1-1.6c0.8-1.1 1.4-2.4 2.1-3.6 0.3-0.8 0.7-1.6 1-2.4 2.1 2.6 4.2 6 4.5 8.7q0 0.3 0.1 0.7c1.4 9.6 6 18.1 12.6 24.4-7 6.2-19.1 16.5-24.5 18.5-4.9 1.8-7.5 1-10.5 0-3.6-1.1-7.7-2.4-15.5 0.7v3.6l1-0.4c6.9-2.7 10.1-1.7 13.5-0.6 3.2 1 6.6 2 12.3 0q0.1 0 0.1 0c4.3-1.3 14.6-6.7 20.6-9.7 1.5-0.8 3.5-1.7 4.7-2.3 1.9-0.8 3.9-1.9 6.3-1.9q1 0 1.9 0.2 0.4 0.1 0.8 0.2 0.1 0.1 0.3 0.1 0.2 0.1 0.5 0.2 0.2 0.1 0.3 0.1 0.2 0.2 0.5 0.3 0.1 0.1 0.3 0.1 0.2 0.2 0.4 0.3 0.1 0.1 0.3 0.2 0.2 0.1 0.4 0.3 0.1 0.1 0.2 0.2 0.3 0.2 0.5 0.4 0.1 0.1 0.2 0.2 0.6 0.6 1 1.3 0.1 0.1 0.2 0.2 0.1 0.2 0.3 0.5 0.1 0.1 0.1 0.3 0.1 0.2 0.2 0.4 0.1 0.2 0.2 0.3 0.1 0.3 0.2 0.5 0 0.2 0.1 0.4 0 0.2 0.1 0.5 0 0.1 0.1 0.3 0 0.3 0.1 0.6 0 0.1 0 0.3 0 0.4 0 0.9 0 0.4 0 0.8 0 0.1 0 0.3-0.1 0.3-0.1 0.6 0 0.1-0.1 0.2-0.1 0.4-0.2 0.8 0 0.1 0 0.1-0.1 0.3-0.2 0.6-0.1 0.2-0.2 0.3-0.1 0.3-0.2 0.5-0.1 0.1-0.1 0.2-0.2 0.4-0.4 0.7-0.1 0.1-0.2 0.2-0.1 0.2-0.3 0.4-0.1 0.2-0.2 0.3-0.1 0.1-0.3 0.3 0 0 0 0-0.1 0.1-0.2 0.2-0.1 0.1-0.2 0.2-0.1 0.1-0.3 0.3 0 0 0 0-0.2 0.1-0.4 0.3-0.1 0.1-0.3 0.2-0.1 0.1-0.3 0.2-0.2 0.1-0.3 0.2-0.3 0.2-0.6 0.3-0.3 0.2-0.6 0.3-0.2 0.1-0.3 0.1-0.3 0.1-0.6 0.2-0.1 0.1-0.3 0.1-0.3 0.1-0.6 0.1-0.1 0.1-0.3 0.1-0.3 0-0.6 0.1-0.4 0-0.8 0-0.1 0-0.1 0-0.1 0-0.1 0-0.3 0-0.6 0c-0.6-0.1-1.3-0.2-2-0.5-0.7-0.3-1.3-0.7-2-1.2q-0.2-0.2-0.4-0.4-0.2-0.2-0.5-0.4c-0.1-0.2-0.2-0.4-0.3-0.5-0.1-0.1-0.1-0.2-0.2-0.3l-0.2-0.3-0.2-0.3v-0.1l-0.1-0.1q-0.1-0.3-0.2-0.6-0.2-0.6-0.2-1.2c0-0.9 0.2-1.7 0.7-2.4q0.3-0.6 0.8-1c0.1-0.1 0.3-0.2 0.4-0.4 0.1 0 0.2-0.1 0.3-0.2h0.2v-0.1h0.1q0.3-0.2 0.7-0.2c-0.7 0.4-1.3 1.2-1.3 2.1-0.2 1.5 0.9 2.7 2.4 2.8 1.4 0.1 2.7-0.9 2.8-2.4q0-0.3 0-0.6 0-0.4-0.1-0.7l-0.1-0.1c0 0 0-0.1 0-0.1l-0.1-0.1-0.1-0.3c-0.1-0.2-0.3-0.4-0.4-0.6-0.2-0.2-0.4-0.3-0.6-0.5q-0.1-0.1-0.2-0.2l-0.4-0.2c-0.9-0.4-2.1-0.6-3.1-0.2l-0.1 0.1h-0.2l-0.1 0.1q-0.2 0.1-0.4 0.2c-0.2 0.1-0.5 0.3-0.7 0.4q-0.7 0.5-1.2 1.2c-0.7 0.9-1.1 2.1-1.3 3.3q0 0.9 0.1 1.8c0.1 0.3 0.2 0.6 0.3 0.9l0.1 0.2v0.1c0 0 0 0.1 0 0.1l0.2 0.4c0.2 0.4 0.5 1 0.8 1.4q0.3 0.3 0.5 0.7 0.3 0.3 0.6 0.6 0.3 0.2 0.6 0.5-0.3 0-0.6 0c-1.9 0.2-4.1 0.5-6.3 1.1-2.2 0.6-4.6 1.6-6.6 3.3-0.9 0.8-1.8 1.8-2.5 2.9-0.1 0.1-0.2 0.2-0.3 0.3l-0.2 0.5c-0.2 0.3-0.4 0.6-0.5 0.9-0.2 0.3-0.3 0.6-0.4 0.9l-0.3 1c-0.7 2.5-0.5 5.2 0.5 7.6 0.5 1.1 1.2 2.2 2 3.1l0.7 0.6 0.6 0.6 0.2 0.2c0.1 0.1 0.1 0 0.1 0v0.1h0.1l0.4 0.2c0.2 0.2 0.5 0.4 0.8 0.5 2.3 1.1 4.9 0.9 6.8-0.3 0.9-0.5 1.7-1.3 2.3-2.2 0.6-0.9 0.7-2 0.6-3-0.1-1-0.6-1.8-1.2-2.4q-0.1-0.2-0.3-0.3l-0.1-0.1-0.1-0.1h-0.1l-0.2-0.1q-0.1-0.1-0.3-0.2c-0.2-0.1-0.4-0.2-0.6-0.2h-0.3q-0.2 0-0.3 0-0.5 0-0.9 0.1-0.1 0.1-0.1 0.1-0.1 0-0.2 0.1c-0.8 0.4-1.4 1.2-1.5 2.2-0.1 1.4 1 2.7 2.4 2.8 1 0.1 1.9-0.5 2.4-1.3q0 0.3-0.1 0.6 0 0.3-0.1 0.5l-0.2 0.2-0.1 0.2c-0.5 0.6-1.1 1.2-1.9 1.5-1.4 0.7-3.3 0.7-4.8-0.2-0.2-0.1-0.3-0.2-0.5-0.3l-0.3-0.2-0.1-0.1v-0.1c0 0-0.1 0 0 0.1l-0.1-0.2-0.5-0.5-0.4-0.5q-0.9-1.2-1.3-2.5c-0.6-1.8-0.5-3.8 0.1-5.5l0.2-0.6c0.1-0.2 0.3-0.4 0.4-0.6 0.1-0.2 0.2-0.4 0.3-0.6l0.2-0.2c0-0.1 0.1-0.2 0.2-0.3 0.6-0.8 1.3-1.4 2.1-1.9 1.5-1.1 3.2-1.6 5.1-2 1.8-0.3 3.7-0.4 5.6-0.4 1.9-0.1 3.7-0.1 5.5-0.1 1.7-0.1 3.4-0.3 5-0.6q0.5-0.1 0.9-0.2c-1.8 1.3-3.7 2.7-5.4 4.6-1.8 1.8-3.5 4.1-4.5 6.7-0.4 1.4-0.7 2.8-0.8 4.2 0 0.1-0.1 0.3-0.1 0.5v0.6c0 0.3 0 0.7 0.1 1.1 0 0.4 0.1 0.7 0.2 1.1l0.2 1c0.8 2.8 2.5 5.3 4.7 7 1.2 0.8 2.4 1.4 3.7 1.9q0.5 0.1 1 0.2 0.5 0.1 1 0.2l0.2 0.1q0.1 0 0.1 0 0 0 0 0h0.1 0.1 0.5c0.3 0 0.7 0 1.1 0q0.3 0 0.7-0.1 0.1 0 0.2 0 0.3-0.1 0.7-0.2 0 0 0.1 0 0.3-0.1 0.6-0.3 0.1 0 0.1 0 0.3-0.1 0.6-0.3 0.1-0.1 0.2-0.1 0.3-0.2 0.6-0.4 0 0 0 0 0.3-0.2 0.6-0.4 0 0 0.1-0.1 0.2-0.2 0.5-0.4 0-0.1 0.1-0.1 0.2-0.3 0.4-0.5 0 0 0-0.1 0.5-0.5 0.8-1.1c0.6-1.1 1-2.3 1-3.4q0-0.3 0-0.5l-0.1-0.5q0-0.4-0.2-0.9-0.3-0.8-0.8-1.5c-0.7-0.8-1.7-1.4-2.6-1.7q-0.2 0-0.4-0.1h-0.2-0.1c0 0 0.1 0-0.1 0h-0.3-0.2q-0.1 0-0.2 0c-0.3 0-0.6 0.1-0.8 0.2q-0.1 0-0.3 0.1-0.2 0.1-0.3 0.2c-0.8 0.5-1.4 1.3-1.5 2.1v0.1l-0.1 0.1c0 0.1 0 0 0 0.1q0 0.1 0 0.2v0.1c0 1.3 0.9 2.5 2.2 2.7 1.5 0.2 2.8-0.7 3.1-2.2 0.1-0.6-0.1-1.2-0.4-1.7q0.5 0.3 0.9 0.8 0.3 0.5 0.5 1.1 0.1 0.3 0.1 0.6v0.3 0.2c-0.1 0.9-0.4 1.8-0.9 2.5-1 1.6-2.8 2.7-4.8 2.7-0.2 0-0.4 0-0.7 0h-0.4l-0.1-0.1h-0.1q0 0 0 0h-0.2q-0.3-0.1-0.7-0.2l-0.8-0.3q-1-0.4-1.9-1-0.2-0.1-0.3-0.3-0.3-0.1-0.5-0.3-1.4-1.2-2.2-2.7c-1-1.7-1.5-3.5-1.5-5.5 0-3.2 1.3-6 3.4-8q0.3-0.2 0.5-0.4 0.2-0.1 0.3-0.2 0.3-0.3 0.7-0.5 0.2-0.2 0.4-0.3 0.2-0.1 0.3-0.2 0.3-0.1 0.6-0.3 0.1 0 0.2-0.1 0.3-0.1 0.6-0.2c1.2-0.5 2.5-0.7 3.8-0.7q1 0 1.9 0.2 1.1 0.1 2.2 0.6c3.7 1.5 5.9 5.1 6.8 9.2 0.6 3.1 1.2 7.5 1.6 12.6 0.5-5.1 1.1-9.5 1.7-12.6 0.8-4.1 3-7.7 6.8-9.2q1-0.5 2.1-0.6 1-0.2 1.9-0.2 2.1 0 3.8 0.7 0.4 0.1 0.7 0.2 0.1 0.1 0.2 0.1 0.3 0.2 0.5 0.3 0.2 0.1 0.3 0.2 0.3 0.1 0.5 0.3 0.4 0.2 0.7 0.5 0.1 0.1 0.2 0.2 0.3 0.2 0.5 0.4c2.2 2 3.5 4.8 3.5 8 0 2-0.6 3.8-1.5 5.5-0.6 1-1.3 1.9-2.2 2.7q-0.2 0.2-0.5 0.3-0.2 0.2-0.3 0.3-0.9 0.6-2 1l-0.7 0.3q-0.4 0.1-0.8 0.2h-0.2q0 0 0.1 0h-0.1l-0.1 0.1h-0.5c-0.2 0-0.4 0-0.6 0-2 0-3.8-1.1-4.8-2.7-0.5-0.7-0.8-1.6-0.9-2.5l-0.1-0.2 0.1-0.3q0-0.3 0.1-0.6 0.1-0.6 0.5-1.1 0.3-0.5 0.8-0.8c-0.3 0.5-0.4 1.1-0.3 1.7 0.2 1.5 1.6 2.4 3 2.2 1.4-0.2 2.3-1.4 2.2-2.7v-0.1q0-0.1 0-0.2c0-0.1 0 0 0-0.1v-0.1-0.1c-0.2-0.8-0.7-1.6-1.5-2.1q-0.2-0.1-0.3-0.2-0.2-0.1-0.4-0.1c-0.2-0.1-0.5-0.2-0.7-0.2q-0.2 0-0.2 0h-0.2-0.3-0.1c-0.1 0 0 0-0.1 0h-0.1-0.1q-0.2 0.1-0.4 0.1c-1 0.3-1.9 0.9-2.6 1.7q-0.6 0.7-0.9 1.5-0.1 0.5-0.2 0.9v0.5q-0.1 0.2-0.1 0.5c0.1 1.1 0.4 2.3 1 3.4q0.4 0.6 0.8 1.1 0 0.1 0 0.1 0.2 0.2 0.5 0.5 0 0 0.1 0.1 0.2 0.2 0.5 0.4 0 0.1 0.1 0.1 0.2 0.2 0.5 0.4 0 0 0.1 0 0.3 0.2 0.6 0.4 0 0 0.1 0.1 0.3 0.2 0.7 0.3 0 0 0 0 0.4 0.2 0.7 0.3 0 0 0.1 0 0.3 0.1 0.7 0.2 0.1 0 0.2 0 0.3 0.1 0.7 0.1c0.3 0 0.8 0 1.1 0h0.4 0.2c0.1 0 0 0 0.1 0l0.3-0.1q0.5-0.1 1-0.2 0.5-0.1 0.9-0.2c1.3-0.5 2.6-1.1 3.7-1.9 2.3-1.7 4-4.2 4.8-7l0.2-1c0.1-0.4 0.1-0.7 0.2-1.1 0-0.4 0-0.8 0-1.1v-0.6c0-0.2 0-0.4 0-0.5-0.1-1.4-0.4-2.8-0.9-4.2-0.9-2.6-2.6-4.9-4.4-6.7-1.8-1.9-3.7-3.3-5.4-4.6q0.4 0.1 0.9 0.2c1.5 0.3 3.2 0.5 5 0.6 1.8 0 3.6 0 5.5 0.1 1.8 0 3.7 0.1 5.6 0.4 1.8 0.4 3.6 0.9 5.1 2 0.7 0.5 1.4 1.1 2 1.9 0.1 0.1 0.2 0.2 0.3 0.3l0.2 0.2c0.1 0.2 0.2 0.4 0.3 0.6 0.1 0.2 0.2 0.4 0.3 0.6l0.3 0.6c0.6 1.7 0.7 3.7 0.1 5.5q-0.5 1.3-1.3 2.5l-0.4 0.5-0.5 0.5-0.1 0.1v0.1h-0.1l-0.1 0.1-0.3 0.2c-0.1 0.1-0.3 0.2-0.4 0.3-1.5 0.9-3.4 0.9-4.9 0.2-0.7-0.3-1.4-0.9-1.8-1.5l-0.2-0.2-0.1-0.2q-0.1-0.2-0.2-0.5-0.1-0.3-0.1-0.6c0.5 0.8 1.4 1.4 2.4 1.3 1.5-0.1 2.6-1.4 2.5-2.8-0.1-1-0.7-1.8-1.5-2.2q-0.1-0.1-0.2-0.1-0.1 0-0.1-0.1-0.4-0.1-0.9-0.1-0.2 0-0.3 0h-0.3c-0.2 0-0.5 0.1-0.7 0.2q-0.2 0.1-0.3 0.2l-0.2 0.1-0.1 0.1h-0.1l-0.1 0.1q-0.1 0.1-0.2 0.3c-0.6 0.6-1.1 1.4-1.2 2.4-0.2 1 0 2.1 0.6 3 0.5 0.9 1.3 1.7 2.3 2.2 1.8 1.2 4.5 1.4 6.7 0.3 0.3-0.1 0.6-0.3 0.9-0.5l0.3-0.2h0.1l0.1-0.1c0 0-0.1 0.1 0 0l0.2-0.2 0.7-0.6 0.6-0.6q1.3-1.4 2-3.1c1-2.4 1.2-5.1 0.6-7.6l-0.3-1c-0.1-0.3-0.3-0.6-0.4-0.9-0.1-0.3-0.3-0.6-0.5-0.9l-0.3-0.5c0-0.1-0.1-0.2-0.2-0.3-0.7-1.1-1.6-2.1-2.6-2.9-1.9-1.7-4.3-2.7-6.5-3.3-2.3-0.6-4.4-0.9-6.4-1.1q-0.2 0-0.5 0c0.2-0.2 0.4-0.3 0.6-0.5q0.2-0.3 0.5-0.6 0.3-0.4 0.5-0.7c0.3-0.4 0.7-1 0.8-1.4l0.2-0.4c0 0 0.1-0.1 0.1-0.1v-0.1l0.1-0.2c0.1-0.3 0.2-0.6 0.2-0.9q0.2-0.9 0.1-1.8c-0.1-1.2-0.6-2.4-1.3-3.3q-0.5-0.7-1.2-1.2c-0.2-0.1-0.5-0.3-0.7-0.4-0.1-0.1-0.2-0.1-0.3-0.2l-0.2-0.1h-0.1l-0.1-0.1c-1.1-0.4-2.3-0.2-3.2 0.2l-0.3 0.2q-0.2 0.1-0.3 0.2c-0.2 0.2-0.4 0.3-0.5 0.5-0.2 0.2-0.4 0.4-0.4 0.6l-0.2 0.3v0.1c0 0-0.1 0.1-0.1 0.1v0.1q-0.1 0.3-0.1 0.7-0.1 0.3-0.1 0.6c0.1 1.5 1.4 2.5 2.9 2.4 1.4-0.1 2.5-1.3 2.4-2.8-0.1-0.9-0.6-1.7-1.4-2.1q0.4 0 0.8 0.2l0.1 0.1h0.1c0.1 0.1 0.2 0.2 0.3 0.2 0.2 0.2 0.3 0.3 0.5 0.4q0.5 0.4 0.8 1c0.4 0.7 0.7 1.5 0.7 2.4q-0.1 0.6-0.2 1.2c-0.1 0.2-0.1 0.4-0.2 0.6l-0.1 0.1-0.1 0.1-0.1 0.3-0.2 0.3c-0.1 0.1-0.2 0.2-0.2 0.3-0.2 0.1-0.2 0.3-0.4 0.5q-0.2 0.2-0.4 0.4-0.2 0.2-0.5 0.4-0.9 0.8-2 1.2c-0.6 0.3-1.3 0.4-2 0.5q-0.2 0-0.5 0-0.1 0-0.1 0-0.1 0-0.1 0-0.4 0-0.8 0-0.3-0.1-0.7-0.1-0.1 0-0.3-0.1-0.3 0-0.5-0.1-0.2 0-0.4-0.1-0.2-0.1-0.5-0.2-0.2 0-0.4-0.1-0.3-0.1-0.5-0.3-0.3-0.1-0.6-0.3-0.2-0.1-0.3-0.2-0.2-0.1-0.4-0.2-0.1-0.1-0.3-0.2-0.2-0.2-0.3-0.3-0.1 0-0.1 0-0.1-0.2-0.3-0.3-0.1-0.1-0.1-0.2-0.1-0.1-0.2-0.2 0 0-0.1 0-0.1-0.2-0.2-0.3-0.2-0.1-0.3-0.3-0.1-0.2-0.3-0.4-0.1-0.1-0.1-0.2-0.2-0.3-0.4-0.7-0.1-0.1-0.2-0.2-0.1-0.2-0.2-0.5 0-0.1-0.1-0.3-0.1-0.3-0.2-0.6-0.1 0-0.1-0.1-0.1-0.4-0.2-0.8 0-0.1 0-0.2-0.1-0.3-0.1-0.6 0-0.2 0-0.3-0.1-0.4-0.1-0.8 0-0.5 0.1-0.9 0-0.2 0-0.3 0-0.3 0.1-0.6 0-0.2 0.1-0.3 0-0.3 0.1-0.5 0-0.2 0.1-0.4 0.1-0.2 0.2-0.5 0-0.1 0.1-0.3 0.1-0.2 0.2-0.4 0.1-0.2 0.2-0.3 0.1-0.3 0.3-0.5 0-0.1 0.1-0.2 0.5-0.7 1.1-1.3 0.1-0.1 0.2-0.2 0.2-0.2 0.4-0.4 0.1-0.1 0.2-0.2 0.3-0.2 0.5-0.3 0.1-0.1 0.2-0.2 0.3-0.1 0.5-0.3 0.1 0 0.3-0.1 0.2-0.1 0.5-0.3 0.1 0 0.2-0.1 0.3-0.1 0.6-0.2 0.1 0 0.3-0.1 0.4-0.1 0.8-0.2 0.9-0.2 1.9-0.2c2.4 0 4.3 1.1 6.3 1.9 0 0 3.1 1.5 4.7 2.3 5.9 3 16.3 8.4 20.6 9.7q0 0 0 0c5.8 2 9.1 1 12.4 0 3.4-1.1 6.5-2.1 13.4 0.6l1.1 0.4v-3.6c-7.9-3.1-12-1.8-15.6-0.7-2.9 1-5.5 1.8-10.4 0-5.4-2-17.5-12.3-24.5-18.4 6.9-6.6 11.5-15.5 12.7-25.5 0.5-2.6 2.5-5.9 4.5-8.3 0.3 0.8 0.7 1.5 1 2.3 0.7 1.2 1.3 2.5 2.1 3.6q0.5 0.8 1.1 1.6 0.6 0.7 1.1 1.4c0.7 0.9 1.5 1.6 2.2 2.3q0.5 0.5 1 0.9 0.4 0.4 0.8 0.7c1 0.8 1.6 1.2 1.6 1.2 0.2 0.2 0.6 0.2 0.7 0 0.2-0.2 0.2-0.6 0-0.8 0 0-0.6-0.5-1.5-1.3q-0.4-0.4-0.9-0.7-0.3-0.5-0.8-1c-0.6-0.6-1.3-1.3-1.9-2.3q-0.5-0.6-1-1.3-0.5-0.8-1-1.6c-0.7-1-1.2-2.3-1.8-3.5-0.3-1.1-0.8-2.2-1.1-3.3q0.7-0.7 1.3-1.4c4.5 8 12 14 21.2 16.3q2.4 0.6 5 0.9 0.2 0 0.4 0c1.5 0.1 2.9-0.9 3.3-2.4 0.4-1.8-0.6-3.5-2.4-4q-0.1 0-0.1 0-0.3-0.1-0.6-0.1c-7.1-0.7-13.5-4-18.1-9.4-1.7-2.1-3.1-4.3-4.2-6.7q0.6-0.8 1.1-1.5 0.3 0.4 0.6 0.8c1 1.1 1.9 2.4 3 3.4 1.1 1.1 2.4 2 3.6 3 1.3 0.9 2.6 1.8 4 2.4 1.3 0.8 2.7 1.3 4.1 1.9 1.4 0.4 2.7 0.9 4 1.1q1 0.2 1.9 0.3 0.9 0.1 1.8 0.2c1.1 0.2 2.2 0.1 3.1 0.1q0.7 0 1.4 0 0.6-0.1 1-0.1c1.4-0.1 2.1-0.2 2.1-0.2 0.3-0.1 0.5-0.3 0.5-0.6-0.1-0.3-0.3-0.5-0.6-0.5 0 0-0.7 0.1-2 0.1q-0.5 0.1-1.1 0.1-0.6 0-1.3-0.1c-0.9 0-1.9 0-3-0.3q-0.8-0.1-1.6-0.2-0.9-0.2-1.8-0.5c-1.3-0.2-2.5-0.8-3.8-1.2-1.2-0.6-2.5-1.2-3.7-1.9-1.2-0.7-2.4-1.6-3.5-2.5-1.1-1-2.2-1.9-3.1-3-1-1-1.8-2.1-2.6-3.2-0.4-0.7-0.8-1.3-1.2-1.9q0.5-0.7 1-1.5c4.5 5 10.5 8.6 17.3 10.2q2.8 0.7 5.7 0.8 3.3 0.2 6.5-0.2 0.3 0 0.6-0.1c1.2-0.3 2.1-1.2 2.4-2.4 0.4-1.7-0.7-3.5-2.4-3.9q-0.5-0.1-1-0.1-0.2 0-0.4 0.1-2.6 0.3-5.3 0.2c-7.3-0.5-14-3.7-18.8-9.2q-0.7-0.8-1.4-1.6 0.4-0.8 0.8-1.7 0.4 0.4 0.8 0.8c1.2 0.8 2.3 1.8 3.7 2.6 1.3 0.8 2.7 1.5 4.1 2.2 1.5 0.5 2.9 1.1 4.4 1.4 1.5 0.5 3 0.6 4.5 0.9 1.4 0.1 2.8 0.3 4.1 0.2q1-0.1 2-0.1 0.9-0.1 1.7-0.2c1.2-0.1 2.2-0.4 3.2-0.6q0.6-0.2 1.2-0.3 0.6-0.2 1.1-0.4c1.2-0.4 1.9-0.7 1.9-0.7 0.3-0.1 0.4-0.3 0.4-0.6-0.1-0.3-0.4-0.4-0.7-0.4 0 0-0.7 0.2-2 0.6q-0.5 0.1-1 0.3-0.6 0.1-1.3 0.2c-0.8 0.2-1.8 0.4-2.9 0.4q-0.8 0.1-1.7 0.1-0.9 0-1.9 0c-1.2 0-2.5-0.3-3.9-0.4-1.3-0.3-2.7-0.5-4-1.1-1.4-0.3-2.7-1-4.1-1.5-1.2-0.8-2.5-1.4-3.6-2.3-1.2-0.7-2.2-1.7-3.3-2.5-0.5-0.6-1-1.1-1.5-1.6q0.3-0.8 0.6-1.6c3.4 2.3 7.3 4 11.5 5q2.8 0.6 5.7 0.7c5.1 0.3 10.1-0.6 14.6-2.5 1-0.3 1.8-1.2 2-2.3 0.4-1.7-0.7-3.5-2.5-3.9q-0.8-0.1-1.6 0.1-0.1 0-0.1 0-0.2 0.1-0.5 0.2c-3.6 1.5-7.5 2.2-11.5 2-5.8-0.3-11.3-2.4-15.7-6q0.2-0.9 0.3-1.8 0.7 0.3 1.3 0.7c1.4 0.5 2.8 1.2 4.3 1.6 1.5 0.5 3 0.7 4.5 1 1.6 0.2 3.2 0.4 4.7 0.3 1.5 0.1 3-0.2 4.5-0.3 1.4-0.3 2.8-0.4 4-0.9q1-0.2 1.9-0.5 0.9-0.4 1.7-0.7c1.1-0.4 2-0.9 2.8-1.4q0.6-0.3 1.2-0.6 0.5-0.3 0.9-0.6c1.1-0.7 1.7-1.1 1.7-1.1 0.2-0.2 0.3-0.5 0.2-0.7-0.2-0.3-0.5-0.4-0.7-0.2z"/>
					<path id="path3013" class="s1" d="m225 104.3c0 0.9-0.7 1.5-1.5 1.5-0.9 0-1.5-0.6-1.5-1.5 0-0.8 0.6-1.5 1.5-1.5 0.8 0 1.5 0.7 1.5 1.5z"/>
					<path id="path3015" class="s1" d="m313.2 104.3c0 0.9 0.7 1.5 1.6 1.5 0.8 0 1.5-0.6 1.5-1.5 0-0.8-0.7-1.5-1.5-1.5-0.9 0-1.6 0.7-1.6 1.5z"/>
					<path id="path3017" class="s0" d="m305.2 211.4v-49.8h-72.2v49.8c0.1 19.9 16.2 36 36.1 36.1 20-0.1 36.1-16.2 36.1-36.1q0 0 0 0z"/>
					<path id="path3019" class="s2" d="m302.7 210.9v-46.7h-67.1v46.7c0 18.5 15 33.5 33.5 33.5 18.6 0 33.6-15 33.6-33.5q0 0 0 0z"/>
					<path id="path3021" class="s2" d="m301.3 210.6v-45h-64.3v45c0 17.7 14.4 32.1 32.1 32.1q0 0 0 0 0 0 0 0c17.8 0 32.2-14.4 32.2-32.1q0 0 0 0z"/>
					<path id="path3023" class="s3" d="m237 205h31.3v16h-29.7c-0.8-2.4-1.4-4.9-1.6-7.5z"/>
					<path id="path3025" class="s1" d="m268.3 210.3h-31.3v3.2q0.1 1.1 0.3 2.2h31z"/>
					<path id="path3027" class="s1" d="m268.3 203.3h-31.3v-37.7h31.3z"/>
					<path id="path3029" class="s2" d="m301.2 203.3h-31.3v-37.7h31.3z"/>
					<path id="path3031" class="s3" d="m252.6 184.4h-15.6v-18.8h15.6z"/>
					<path id="path3033" class="s3" d="m273.4 203.3h-1.7v-37.7h1.7z"/>
					<path id="path3035" class="s3" d="m283.9 203.3h-1.8v-37.7h1.8z"/>
					<path id="path3037" class="s3" d="m280.4 203.3h-1.8v-37.7h1.8z"/>
					<path id="path3039" class="s3" d="m276.9 203.3h-1.7v-37.7h1.7z"/>
					<path id="path3041" class="s3" d="m289.1 203.3h-1.8v-37.7h1.8z"/>
					<path id="path3043" class="s3" d="m299.5 203.3h-1.7v-37.7h1.7z"/>
					<path id="path3045" class="s3" d="m296 203.3h-1.7v-37.7h1.7z"/>
					<path id="path3047" class="s3" d="m292.6 203.3h-1.8v-37.7h1.8z"/>
					<path id="path3049" class="s1" d="m301.2 203.3l-7.8-18.8-7.8 18.8v-37.7l7.8 18.9 7.8-18.9z"/>
					<path id="path3051" class="s0" d="m270 242.7c13.1-0.3 24.2-8.5 28.9-20h-28.9z"/>
					<path id="path3053" class="s4" d="m268.4 222.7h-29c4.6 11.5 15.8 19.7 29 20z"/>
				</g>
			</g>
		</g>
		<g id="g3055">
			<g id="Clip-Path: g3057" clip-path="url(#cp2)">
				<g id="g3057">
					<path id="path3063" class="s2" d="m269.3 252.5l-32.5-32.4 2.4-2.3 32.4 32.4z"/>
					<path id="path3065" class="s2" d="m264.5 257.3l-32.4-32.4 2.3-2.4 32.5 32.4z"/>
					<path id="path3067" class="s2" d="m278.7 243l-32.4-32.4 2.3-2.4 32.5 32.5z"/>
					<path id="path3069" class="s2" d="m274 247.8l-32.5-32.5 2.4-2.3 32.4 32.4z"/>
				</g>
			</g>
		</g>
		<g id="g3071">
			<g id="Clip-Path: g3073" clip-path="url(#cp3)">
				<g id="g3073">
					<path id="path3079" class="s4" d="m301.2 221.1h-31.2v-16.1h31.2z"/>
					<path id="path3081" class="s1" d="m301.2 208.2h-31.2v-3.3h31.2z"/>
					<path id="path3083" class="s1" d="m274.4 221.1h-4.4v-16.1h4.4z"/>
					<path id="path3085" class="s1" d="m301.2 221.2h-31.2v-3.4h31.2z"/>
					<path id="path3087" class="s1" d="m301.2 221.1h-4.4v-16.1h4.4z"/>
					<path id="path3089" class="s3" d="m274.4 214.7h-4.4v-3.3h4.4z"/>
					<path id="path3091" class="s3" d="m301.2 214.7h-4.4v-3.3h4.4z"/>
					<path id="path3093" class="s3" d="m274.4 221.1h-4.4v-3.3h4.4z"/>
					<path id="path3095" class="s3" d="m283.4 221.1h-4.5v-3.3h4.5z"/>
					<path id="path3097" class="s3" d="m292.3 221.1h-4.5v-3.3h4.5z"/>
					<path id="path3099" class="s3" d="m301.2 221.1h-4.4v-3.3h4.4z"/>
					<path id="path3101" class="s3" d="m274.4 208.2h-4.4v-3.3h4.4z"/>
					<path id="path3103" class="s3" d="m283.4 208.2h-4.5v-3.3h4.5z"/>
					<path id="path3105" class="s3" d="m292.3 208.2h-4.5v-3.3h4.5z"/>
					<path id="path3107" class="s3" d="m301.2 208.2h-4.4v-3.3h4.4z"/>
				</g>
			</g>
		</g>
		<g id="g3109">
			<g id="Clip-Path: g3111" clip-path="url(#cp4)">
				<g id="g3111">
					<path id="path3117" fill-rule="evenodd" class="s2" d="m293.3 212.2c-0.4-0.3-1-0.3-1.3 0q0 0.1-0.2 0.2 0.2-0.4 0.2-0.8c0-0.8-0.7-1.5-0.7-1.5 0 0-0.7 0.7-0.7 1.5q0 0.4 0.1 0.8-0.1-0.1-0.1-0.2c-0.4-0.3-0.9-0.3-1.3 0-0.3 0.4-0.4 0.9-0.1 1.2q0-0.1 0.1-0.2c0.4-0.3 0.9-0.3 1.2 0q0.1 0 0.1 0.1 0.1 0.2 0.1 0.3h-0.1c-0.2 0-0.4 0.2-0.4 0.4q0.1 0.2 0.3 0.3c-0.4 0.3-0.9 0.5-0.9 0.5 0.3 0.4 0.9 0.4 1.3 0.2 0 0.5 0.4 0.9 0.4 0.9 0 0 0.4-0.4 0.5-0.8 0.4 0.1 0.8 0 1.2-0.3 0 0-0.5-0.2-0.9-0.5 0.1 0 0.2-0.2 0.2-0.3 0-0.2-0.2-0.4-0.4-0.4q0-0.1 0-0.3 0.1-0.1 0.2-0.1c0.3-0.3 0.8-0.3 1.1 0q0.1 0.1 0.2 0.2c0.2-0.3 0.2-0.8-0.1-1.2z"/>
					<path id="path3119" fill-rule="evenodd" class="s2" d="m287.6 212.2c-0.4-0.3-0.9-0.3-1.3 0q0 0.1-0.2 0.2 0.2-0.4 0.2-0.8c0-0.8-0.7-1.5-0.7-1.5 0 0-0.7 0.7-0.7 1.5q0 0.4 0.2 0.8-0.2-0.1-0.2-0.2c-0.3-0.3-0.9-0.3-1.3 0-0.3 0.4-0.3 0.9-0.1 1.2q0.1-0.1 0.2-0.2c0.3-0.3 0.8-0.3 1.1 0q0.1 0 0.1 0.1 0.1 0.2 0.1 0.3c-0.2 0-0.4 0.2-0.4 0.4 0 0.1 0.1 0.2 0.2 0.3-0.4 0.3-0.9 0.5-0.9 0.5 0.4 0.4 0.9 0.4 1.3 0.2 0.1 0.5 0.5 0.9 0.5 0.9 0 0 0.3-0.4 0.4-0.8 0.4 0.1 0.9 0 1.2-0.3 0 0-0.5-0.2-0.9-0.5 0.2 0 0.3-0.2 0.3-0.3 0-0.2-0.2-0.4-0.4-0.4h-0.1q0-0.1 0.1-0.3 0-0.1 0.1-0.1c0.3-0.3 0.8-0.3 1.1 0q0.2 0.1 0.2 0.2c0.2-0.3 0.2-0.8-0.1-1.2z"/>
					<path id="path3121" fill-rule="evenodd" class="s2" d="m281.9 212.2c-0.3-0.3-0.9-0.3-1.3 0q0 0.1-0.1 0.2c0.1-0.3 0.1-0.6 0.1-0.8 0-0.8-0.7-1.5-0.7-1.5 0 0-0.6 0.7-0.6 1.5q0 0.4 0.1 0.8-0.1-0.1-0.1-0.2c-0.4-0.3-1-0.3-1.4 0-0.3 0.4-0.3 0.9-0.1 1.2q0.1-0.1 0.2-0.2c0.3-0.3 0.8-0.3 1.1 0q0.1 0 0.2 0.1 0 0.2 0.1 0.3h-0.1c-0.2 0-0.4 0.2-0.4 0.4q0 0.2 0.2 0.3c-0.4 0.3-0.9 0.5-0.9 0.5 0.4 0.4 0.9 0.4 1.3 0.2 0.1 0.5 0.5 0.9 0.5 0.9 0 0 0.4-0.4 0.5-0.8 0.4 0.1 0.8 0 1.1-0.3 0 0-0.5-0.2-0.8-0.5 0.1 0 0.2-0.2 0.2-0.3 0-0.2-0.2-0.4-0.4-0.4h-0.1q0-0.1 0.1-0.3 0.1-0.1 0.1-0.1c0.3-0.3 0.9-0.3 1.2 0q0.1 0.1 0.1 0.2c0.3-0.3 0.2-0.8-0.1-1.2z"/>
					<path id="path3123" fill-rule="evenodd" class="s3" d="m268.4 242.7c-13.2-0.3-24.4-8.5-29-20h29zm-24-16.9c4.6 7.4 12.2 12.4 20.8 13.5v-13.5z"/>
					<path id="path3125" class="s1" d="m269.1 227.4c-3.8 0-6.9-3.1-6.9-6.9v-9.4h13.9v9.4c0 3.8-3.2 6.9-7 6.9q0 0 0 0z"/>
					<path id="path3127" fill-rule="evenodd" class="s2" d="m276.9 220.5c0 4.3-3.5 7.7-7.8 7.7-4.2 0-7.7-3.4-7.7-7.7v-10.2h15.5zm-13.9-8.6v8.6c0 3.4 2.7 6.1 6.1 6.1 3.4 0 6.1-2.7 6.1-6.1v-8.6c0 0-12.2 0-12.2 0z"/>
					<path id="path3129" class="s2" d="m263 211.9v8.6c0 3.4 2.7 6.1 6.1 6.1v-14.7c0 0-6.1 0-6.1 0z"/>
					<path id="path3131" class="s1" d="m275.2 220.5v-8.6h-6.1v14.7c3.4 0 6.1-2.7 6.1-6.1h0.1q-0.1 0-0.1 0z"/>
					<path id="path3133" class="s2" d="m263 211.9v8.6c0 3.4 2.7 6.1 6.1 6.1v-14.7c0 0-6.1 0-6.1 0z"/>
					<path id="path3135" class="s1" d="m275.2 220.5v-8.6h-6.1v14.7c3.4 0 6.1-2.7 6.1-6.1h0.1q-0.1 0-0.1 0z"/>
					<path id="path3137" class="s0" d="m266.1 220.7c-0.4-0.2-0.6-0.6-0.6-1.1q0-0.3 0.1-0.6c-0.4 0-0.8 0.4-0.8 0.8 0 0.3 0.2 0.5 0.4 0.7l-0.2 0.3c-0.2-0.3-0.5-0.5-0.8-0.5-0.5 0-0.9 0.5-0.9 1l0.3 0.3 0.3-0.3 0.3 0.3 0.3-0.3 0.3 0.3 0.3-0.3c0 0 1-0.6 1-0.6z"/>
					<path id="path3139" class="s0" d="m263.1 216.6h0.5v0.4h0.4c0.4-0.4 0.4-1 0-1.3-0.3-0.4-0.9-0.4-1.3 0v0.4h0.4c0 0 0 0.5 0 0.5z"/>
					<path id="path3141" class="s0" d="m263.1 218.6h0.5v0.4h0.4q0.2-0.2 0.3-0.4h1.2q0.5 0 1-0.2c1.2-0.5 1.7-1.9 1.2-3.1q-0.2-0.5-0.6-0.8-0.3-0.3-0.7-0.4-0.3-0.1-0.5-0.1l-1.7 1.1 0.3 0.5c0-0.2 0.1-0.3 0.2-0.3 0.2 0 0.3 0.1 0.3 0.3 0 0.1-0.1 0.2-0.3 0.2q0 0-0.1 0l0.1 0.2h0.4q0.3 0 0.5 0.1v0.1q-0.1-0.1-0.2-0.1c-0.7 0.1-1.2 0.6-1.1 1.3q0 0.3 0.1 0.5h-0.2q-0.1-0.1-0.2-0.2c-0.3-0.4-0.9-0.4-1.3 0v0.5h0.4c0 0 0 0.4 0 0.4z"/>
					<path id="path3143" class="s0" d="m268.6 218.3q0.2-0.1 0.2-0.3c0-0.2-0.4-0.7-0.4-0.7 0 0-0.3 0.5-0.3 0.7q0 0.2 0.2 0.3v0.8c0 0.2-0.2 0.4-0.4 0.4q-0.1 0-0.2-0.1-0.1-0.2-0.1-0.3c-0.2-0.2-0.5-0.4-0.8-0.4-0.5 0-0.9 0.4-0.9 0.9q0 0.4 0.3 0.7h0.1q0 0.1 0 0.1l0.7 0.5-0.1 0.5q-0.2-0.1-0.5-0.1c-0.5 0-0.9 0.4-0.9 0.9v0.1l0.3 0.3 0.3-0.3 0.3 0.3 0.4-0.3 0.3 0.3 0.3-0.3v-0.1q0-0.2-0.1-0.4l0.4-0.9v-1.1q0.1 0 0.2 0c0.4 0 0.7-0.3 0.7-0.7v-0.8q0 0 0 0z"/>
					<path id="path3145" class="s3" d="m273.3 214.5q0.2 0.3 0.2 0.8c0 1.2-0.6 1-0.7 1-0.2 0-0.2-0.1-0.2-0.3-0.1-0.1 0-1.7 0-1.9 0-0.4 0-0.9-0.7-0.9-0.5 0-0.7 0.3-0.7 0.4 0.3 0 0.5 0.3 0.6 0.5 0 0 0 1.8 0 1.9 0 0.2-0.1 0.3-0.3 0.3 0 0-0.6 0.2-0.6-1q0-0.5 0.2-0.8c-0.3-0.2-0.9-0.7-1.1-1.1v1.9 0.8 6.2l2-3.7-0.9 4.2c0.2 0.7 0.6 1 1.1 1 0.5 0 0.9-0.3 1-1l-0.8-4.2 2 3.7v-6.2-0.8-1.9c-0.2 0.4-0.8 0.9-1.1 1.1z"/>
					<path id="path3147" class="s2" d="m250.7 181.6h-11.8v-1.5h11.8z"/>
					<path id="path3149" class="s2" d="m249.9 179.4h-10.2l0.7-5.1h8.8z"/>
					<path id="path3151" class="s4" d="m245.8 179.4h-2v-2c0-0.5 0.5-1 1-1 0.5 0 1 0.5 1 1 0 0 0 2 0 2z"/>
					<path id="path3153" class="s2" d="m249.2 172.1v-2.2-0.5h-0.4v0.5h-0.4v-0.5h-0.5v0.5h-0.4v-0.5h-0.5v0.5 2.2h-1.1v-3.7-0.4h-0.4v0.4h-0.5v-0.4h-0.4v0.4h-0.4v-0.4h-0.5v0.4 3.7h-1.1v-2.2-0.5h-0.4v0.5h-0.5v-0.5h-0.4v0.5h-0.5v-0.5h-0.4v0.5 2.2h-0.7v1.5h10.2v-1.5z"/>
					<path id="path3155" class="s4" d="m241.9 171.5h-0.8v-0.7c0-0.2 0.2-0.4 0.4-0.4 0.2 0 0.4 0.2 0.4 0.4 0 0 0 0.7 0 0.7z"/>
					<path id="path3157" class="s4" d="m242.2 177.2h-0.7v-0.7c0-0.2 0.2-0.4 0.4-0.4 0.2 0 0.3 0.2 0.3 0.4z"/>
					<path id="path3159" class="s4" d="m245.2 170.6h-0.8v-0.7h0.1c0-0.2 0.1-0.4 0.3-0.4 0.2 0 0.4 0.2 0.4 0.4 0 0 0 0.7 0 0.7z"/>
					<path id="path3161" class="s4" d="m248.5 171.5h-0.7v-0.7c0-0.2 0.1-0.4 0.3-0.4 0.2 0 0.4 0.2 0.4 0.4 0 0 0 0.7 0 0.7z"/>
					<path id="path3163" class="s4" d="m248.1 177.2h-0.7v-0.7c0-0.2 0.1-0.4 0.3-0.4 0.2 0 0.4 0.2 0.4 0.4 0 0 0 0.7 0 0.7z"/>
					<path id="path3165" class="s3" d="m268.3 203.3h-15.6v-18.9h15.6z"/>
					<path id="path3167" class="s2" d="m266.4 200.5h-11.8v-1.5h11.8z"/>
					<path id="path3169" class="s2" d="m265.6 198.3h-10.2l0.7-5.2h8.8z"/>
					<path id="path3171" class="s4" d="m261.5 198.3h-2v-2c0-0.6 0.5-1 1-1 0.5 0 1 0.4 1 1 0 0 0 2 0 2z"/>
					<path id="path3173" class="s2" d="m264.9 190.9v-2.2-0.4h-0.4v0.4h-0.5v-0.4h-0.4v0.4h-0.4v-0.4h-0.5v0.4 2.2h-1.1v-3.6-0.5h-0.4v0.5h-0.5v-0.5h-0.4v0.5h-0.4v-0.5h-0.5v0.5 3.6h-1.1v-2.2-0.4h-0.4v0.4h-0.5v-0.4h-0.4v0.4h-0.5v-0.4h-0.4v0.4 2.2h-0.7v1.5h10.2v-1.5z"/>
					<path id="path3175" class="s4" d="m257.6 190.4h-0.8v-0.7c0-0.2 0.2-0.4 0.4-0.4 0.2 0 0.4 0.2 0.4 0.4 0 0 0 0.7 0 0.7z"/>
					<path id="path3177" class="s4" d="m257.9 196.1h-0.7v-0.8c0-0.2 0.2-0.3 0.4-0.3 0.2 0 0.3 0.1 0.3 0.3z"/>
					<path id="path3179" class="s4" d="m260.9 189.5h-0.7v-0.8c0-0.2 0.1-0.3 0.3-0.3 0.2 0 0.4 0.1 0.4 0.3z"/>
					<path id="path3181" class="s4" d="m264.2 190.4h-0.7v-0.7c0-0.2 0.1-0.4 0.3-0.4 0.2 0 0.4 0.2 0.4 0.4 0 0 0 0.7 0 0.7z"/>
					<path id="path3183" class="s4" d="m263.8 196.1h-0.7v-0.8c0-0.2 0.1-0.3 0.3-0.3 0.2 0 0.4 0.1 0.4 0.3 0 0 0 0.8 0 0.8z"/>
					<path id="path3185" class="s1" d="m269.1 177.5c0 15.2-12.3 27.5-27.4 27.5h54.9c-15.2 0-27.5-12.3-27.5-27.5z"/>
					<path id="path3187" class="s5" d="m271.7 200.1c-0.8 0-1.6 0.3-2 0.6q0.1-0.5 0-1 0 0 0 0h-1.1q0 0.5-0.1 1c-0.4-0.3-1.1-0.6-1.9-0.6-1.5 0-2.6 1.1-2.6 1.1 0 0 1.1 1 2.6 1 0.6 0 1.1-0.2 1.5-0.4q-0.2 0.4-0.5 0.8c-0.3 0.2-0.3 0.6 0 0.8q0.1 0.1 0.4 0.1 0.2 0 0.4-0.1 0.8-0.9 1.1-1.9c0.5 0.3 1.3 0.7 2.2 0.7 1.4 0 2.6-1 2.6-1 0 0-1.2-1.1-2.6-1.1z"/>
					<path id="path3189" class="s3" d="m270.1 196.2c0-1.2-1-2.3-1-2.3 0 0-0.9 1.1-0.9 2.3 0 1.3 0.9 2.3 0.9 2.3 0 0 1-1 1-2.3z"/>
					<path id="path3191" fill-rule="evenodd" class="s2" d="m269.7 199.7h-1.1c-1.7-0.3-3-1.7-3-3.5 0-1.5 0.9-2.7 2.2-3.3v-1.4l0.7 0.6 0.7-0.6 0.6 0.6 0.6-0.6v1.4c1.3 0.5 2.3 1.8 2.3 3.3 0 1.8-1.3 3.2-3 3.5q0 0 0 0zm-0.6-1.2c0 0 1-1 1-2.3 0-1.2-1-2.3-1-2.3 0 0-0.9 1.1-0.9 2.3 0 1.3 0.9 2.3 0.9 2.3z"/>
					<path id="path3193" class="s3" d="m245.6 198.3c-0.6-0.4-1-1-1-1.8q0.1-0.5 0.3-0.9 0-0.1 0-0.1c-0.7 0-1.3 0.6-1.3 1.3 0 0.5 0.3 0.9 0.6 1.1l-0.3 0.5c-0.3-0.5-0.8-0.7-1.3-0.7-0.8 0-1.5 0.6-1.5 1.5l0.5 0.5 0.5-0.5 0.5 0.5 0.5-0.5 0.5 0.5 0.5-0.5c0 0 1.5-0.9 1.5-0.9z"/>
					<path id="path3195" class="s3" d="m240.5 190.7c-0.5-0.6-1.5-0.6-2.1 0v0.8h0.7v0.7h0.7v0.7h0.7c0.6-0.6 0.6-1.6 0-2.2z"/>
					<path id="path3197" class="s3" d="m251.4 192.3c0-0.6-0.5-1.1-1.1-1.1-0.6 0-1.2 0.5-1.2 1.1v3.4c0 0.3-0.2 0.6-0.5 0.6q-0.2 0-0.4-0.2-0.1-0.2-0.2-0.4c-0.2-0.4-0.7-0.7-1.2-0.7-0.8 0-1.5 0.7-1.5 1.5 0 0.4 0.2 0.8 0.5 1.1l0.1 0.1q0.1 0 0.1 0l1.1 0.9-0.1 0.9q-0.4-0.3-0.8-0.3c-0.8 0-1.5 0.7-1.5 1.5l0.5 0.6 0.5-0.5 0.5 0.5 0.5-0.5 0.5 0.5 0.5-0.6q0-0.4-0.2-0.7l0.8-1.4v-1.8q0.1 0 0.3 0c0.6 0 1.1-0.5 1.1-1.1v-3.4c0-0.3 0.3-0.5 0.6-0.5 0.3 0 0.5 0.2 0.5 0.5-0.1 0.1-0.3 0.2-0.3 0.5 0 0.3 0.6 1 0.6 1 0 0 0.6-0.7 0.6-1 0-0.3-0.1-0.4-0.3-0.5z"/>
					<path id="path3199" class="s3" d="m246 186.9l-0.5-0.5-0.5 0.5-0.5-0.5-0.4 0.5-0.5-0.5-0.5 0.5 0.5 0.5 0.5-0.4 0.4 0.4 0.5-0.4 0.5 0.5z"/>
					<path id="path3201" class="s3" d="m247.1 190q-0.4-0.7-1-1.2-0.5-0.6-1.2-0.8-0.4-0.1-0.8-0.1l-2.7 1.8 0.4 0.8v-0.1c0-0.2 0.2-0.4 0.5-0.4 0.3 0 0.5 0.2 0.5 0.4 0 0.3-0.2 0.5-0.5 0.5q-0.1 0-0.2-0.1l0.2 0.4h0.6q0.4 0 0.8 0.2-0.2 0-0.3 0c-1.1 0-1.9 0.9-1.9 2q0 0.5 0.2 0.8h-1q-0.1-0.2-0.3-0.3c-0.5-0.6-1.5-0.6-2.1 0v0.7h0.7v0.7h0.7v0.7h0.7c0.3-0.2 0.4-0.5 0.4-0.7h2.6c0.5 0 1.2-0.1 1.8-0.4 1.8-0.8 2.7-3 1.9-4.9z"/>
					<path id="path3203" class="s2" d="m282.7 234.4c-0.5-0.3-0.8-0.9-0.8-1.5q0-0.5 0.2-0.8 0 0 0 0c-0.6 0-1.1 0.4-1.1 1 0 0.4 0.2 0.7 0.6 0.9l-0.3 0.4c-0.3-0.3-0.7-0.6-1.1-0.6-0.7 0-1.3 0.6-1.3 1.3l0.5 0.5 0.4-0.5 0.4 0.5 0.4-0.5 0.4 0.5 0.5-0.5c0 0 1.2-0.7 1.2-0.7z"/>
					<path id="path3205" class="s2" d="m278.5 228c-0.5-0.5-1.3-0.5-1.8 0v0.6h0.6v0.6h0.5v0.6h0.7c0.5-0.5 0.5-1.3 0-1.8z"/>
					<path id="path3207" class="s2" d="m287.6 229.3c-0.1-0.5-0.5-0.9-1-0.9-0.5 0-0.9 0.4-0.9 1v2.8c0 0.3-0.2 0.5-0.5 0.5q-0.2 0-0.3-0.2-0.1-0.1-0.2-0.3c-0.2-0.3-0.6-0.6-1-0.6-0.7 0-1.2 0.6-1.2 1.3 0 0.3 0.1 0.7 0.4 0.9h0.1q0 0.1 0 0.1l1 0.7-0.1 0.7q-0.3-0.1-0.7-0.1c-0.7 0-1.3 0.5-1.3 1.2h0.1-0.1l0.5 0.5 0.4-0.4 0.4 0.4 0.4-0.4 0.4 0.4 0.5-0.5q0-0.3-0.1-0.6l0.5-1.2v-1.5q0.2 0 0.3 0.1c0.5 0 1-0.5 1-1v-2.8c0-0.3 0.2-0.5 0.4-0.5 0.3 0 0.4 0.2 0.5 0.4-0.2 0.1-0.3 0.2-0.3 0.4 0 0.3 0.5 0.9 0.5 0.9 0 0 0.5-0.6 0.5-0.9 0-0.2-0.1-0.3-0.2-0.4z"/>
					<path id="path3209" class="s2" d="m283 224.8l-0.4-0.4-0.4 0.4-0.4-0.4-0.4 0.4-0.4-0.4-0.4 0.4 0.4 0.5 0.4-0.4 0.4 0.4 0.4-0.4 0.4 0.4z"/>
					<path id="path3211" class="s2" d="m283.9 227.4q-0.2-0.6-0.7-1c-0.3-0.3-0.7-0.5-1.1-0.6q-0.3-0.1-0.7-0.1l-2.3 1.4 0.5 0.7c0-0.2 0.1-0.4 0.3-0.4 0.3 0 0.4 0.2 0.4 0.4 0 0.2-0.1 0.4-0.4 0.4q-0.1 0-0.1-0.1l0.1 0.3h0.5q0.4 0 0.7 0.2-0.1 0-0.3 0c-0.9 0-1.6 0.8-1.5 1.7q0 0.3 0.2 0.7h-0.9q-0.1-0.2-0.2-0.4c-0.5-0.5-1.3-0.5-1.8 0v0.7h0.6v0.6h0.6v0.5h0.6c0.2-0.1 0.3-0.3 0.3-0.6h2.2c0.4 0 1-0.1 1.4-0.2 1.6-0.7 2.3-2.6 1.6-4.2z"/>
					<path id="path3213" class="s3" d="m261.4 179.5c-0.6-0.4-1-1.1-1-1.8q0-0.6 0.2-1 0 0 0 0c-0.7 0-1.2 0.6-1.2 1.2 0 0.5 0.2 0.9 0.6 1.1l-0.4 0.5c-0.2-0.4-0.7-0.7-1.2-0.7-0.9 0-1.5 0.7-1.5 1.5l0.5 0.6 0.5-0.5 0.5 0.5 0.5-0.5 0.5 0.5 0.5-0.6c0 0 1.5-0.8 1.5-0.8z"/>
					<path id="path3215" class="s3" d="m256.3 171.9c-0.6-0.6-1.5-0.6-2.1 0v0.7h0.7v0.7h0.7v0.7h0.7c0.6-0.6 0.6-1.6 0-2.1z"/>
					<path id="path3217" class="s3" d="m267.2 173.4c-0.1-0.6-0.6-1.1-1.2-1.1-0.6 0-1.1 0.5-1.1 1.2v3.4c0 0.3-0.3 0.5-0.6 0.5q-0.2 0-0.3-0.1-0.1-0.3-0.2-0.4c-0.3-0.4-0.7-0.7-1.2-0.7-0.8 0-1.5 0.7-1.5 1.5 0 0.4 0.2 0.8 0.5 1.1h0.1q0 0.1 0.1 0.1l1.1 0.8-0.1 0.9q-0.4-0.2-0.8-0.2c-0.9 0-1.5 0.6-1.5 1.5l0.5 0.5 0.5-0.5 0.5 0.5 0.5-0.5 0.5 0.5 0.5-0.5q0-0.4-0.2-0.7l0.7-1.5v-1.8q0.2 0.1 0.3 0.1c0.7 0 1.2-0.5 1.2-1.1v-3.4c0-0.3 0.2-0.6 0.5-0.6 0.3 0 0.5 0.2 0.6 0.5-0.2 0.1-0.3 0.3-0.3 0.5 0 0.3 0.6 1.1 0.6 1.1 0 0 0.6-0.8 0.6-1.1 0-0.2-0.2-0.4-0.3-0.5z"/>
					<path id="path3219" class="s3" d="m261.8 168.1l-0.5-0.5-0.5 0.4-0.5-0.4-0.5 0.4-0.5-0.4-0.5 0.5 0.5 0.5 0.5-0.5 0.5 0.5 0.5-0.5 0.4 0.5z"/>
					<path id="path3221" class="s3" d="m262.8 171.2q-0.3-0.8-0.9-1.3c-0.3-0.3-0.7-0.6-1.2-0.7q-0.4-0.1-0.8-0.1l-2.8 1.7 0.5 0.8c0-0.3 0.2-0.5 0.5-0.5 0.2 0 0.4 0.2 0.4 0.5 0 0.2-0.2 0.4-0.4 0.4q-0.2 0-0.3 0l0.2 0.3h0.6q0.5 0 0.9 0.2-0.2 0-0.4 0c-1 0.1-1.9 1-1.8 2.1q0 0.4 0.2 0.8h-1q-0.1-0.2-0.3-0.4c-0.6-0.6-1.5-0.6-2.1 0v0.8h0.7v0.7h0.7v0.7h0.7c0.2-0.2 0.3-0.5 0.4-0.8h2.6c0.5 0 1.2-0.1 1.7-0.3 1.9-0.8 2.8-3 1.9-4.9z"/>
					<path id="path3223" class="s0" d="m285.6 182.3v-1.1-2.2c0.3 0.5 0.9 1.1 1.3 1.4q-0.3 0.4-0.3 0.9c0 1.4 0.8 1.2 0.8 1.2 0.3 0 0.4-0.2 0.4-0.4 0-0.2-0.1-2.2-0.1-2.2 0-0.3-0.3-0.6-0.6-0.6 0-0.2 0.2-0.5 0.8-0.5 0.8 0 0.9 0.5 0.9 1.1 0 0.2-0.2 2.1-0.2 2.2 0.1 0.2 0.2 0.4 0.4 0.4 0.1 0 0.8 0.2 0.8-1.2q0-0.5-0.3-0.9c0.4-0.3 1.1-0.9 1.3-1.4v2.2 1.1 7.3l-2.4-4.4 1.1 5c-0.2 0.8-0.7 1.2-1.3 1.2-0.6 0-1.1-0.4-1.2-1.2l1-5-2.4 4.4c0 0 0-7.3 0-7.3z"/>
					<path id="path3225" class="s0" d="m296 182.3v-1.1-2.2c0.3 0.5 1 1.1 1.3 1.4q-0.2 0.4-0.2 0.9c0 1.4 0.7 1.2 0.8 1.2 0.2 0 0.3-0.2 0.3-0.4 0-0.2-0.1-2.2-0.1-2.2 0-0.3-0.3-0.6-0.6-0.6 0-0.2 0.2-0.5 0.8-0.5 0.9 0 0.9 0.5 0.9 1.1 0 0.2-0.1 2.1-0.1 2.2 0 0.2 0.1 0.4 0.3 0.4 0.1 0 0.8 0.2 0.8-1.2q0-0.5-0.3-0.9c0.4-0.3 1.1-0.9 1.4-1.4v2.2 1.1 7.3l-2.5-4.4 1.1 5c-0.2 0.8-0.7 1.2-1.3 1.2-0.5 0-1-0.4-1.2-1.2l1-5-2.4 4.4c0 0 0-7.3 0-7.3z"/>
					<path id="path3227" class="s1" d="m230.8 186.3c0.9-0.1 1.6 0.5 1.7 1.4 0.1 0.8-0.5 1.6-1.4 1.7-0.8 0-1.6-0.6-1.7-1.4-0.1-0.8 0.6-1.6 1.4-1.7z"/>
					<path id="path3229" class="s1" d="m230.8 191.8c0.9-0.1 1.6 0.6 1.7 1.4 0.1 0.8-0.5 1.6-1.4 1.7-0.8 0.1-1.6-0.5-1.7-1.4-0.1-0.8 0.6-1.6 1.4-1.7z"/>
					<path id="path3231" class="s1" d="m230.8 197.4c0.9-0.1 1.6 0.5 1.7 1.3 0.1 0.9-0.5 1.6-1.4 1.7-0.8 0.1-1.6-0.5-1.7-1.4-0.1-0.8 0.6-1.5 1.4-1.6z"/>
					<path id="path3233" class="s1" d="m230.8 202.9c0.9-0.1 1.6 0.5 1.7 1.4 0.1 0.8-0.5 1.5-1.4 1.6-0.8 0.1-1.6-0.5-1.7-1.3-0.1-0.9 0.6-1.6 1.4-1.7z"/>
					<path id="path3235" class="s1" d="m230.8 208.4c0.9-0.1 1.6 0.5 1.7 1.4 0.1 0.8-0.5 1.6-1.4 1.7-0.8 0.1-1.6-0.6-1.7-1.4-0.1-0.8 0.6-1.6 1.4-1.7z"/>
					<path id="path3237" class="s1" d="m229.4 215.6c0-0.9 0.6-1.6 1.4-1.7 0.9-0.1 1.6 0.5 1.7 1.4 0.1 0.8-0.5 1.6-1.4 1.6-0.8 0.1-1.6-0.5-1.7-1.3z"/>
					<path id="path3239" class="s1" d="m230.4 221.1c-0.2-0.9 0.3-1.7 1.1-1.9 0.8-0.2 1.7 0.3 1.9 1.1 0.2 0.9-0.3 1.7-1.1 1.9-0.9 0.2-1.7-0.3-1.9-1.1z"/>
					<path id="path3241" class="s1" d="m232.1 226.4c-0.3-0.8 0.1-1.7 0.9-2 0.8-0.4 1.7 0 2 0.8 0.3 0.8-0.1 1.7-0.9 2-0.8 0.3-1.7-0.1-2-0.8z"/>
					<path id="path3243" class="s1" d="m236.7 231.9c-0.8 0.4-1.7 0.2-2.1-0.5-0.5-0.8-0.2-1.7 0.5-2.1 0.8-0.5 1.7-0.2 2.1 0.5 0.5 0.8 0.2 1.7-0.5 2.1z"/>
					<path id="path3245" class="s1" d="m239.8 236.2c-0.6 0.6-1.6 0.5-2.1-0.2-0.5-0.7-0.4-1.7 0.2-2.2 0.7-0.5 1.7-0.4 2.2 0.3 0.5 0.7 0.4 1.6-0.3 2.1z"/>
					<path id="path3247" class="s1" d="m243.6 240.1c-0.6 0.6-1.6 0.6-2.2 0-0.6-0.6-0.6-1.5 0-2.1 0.6-0.7 1.5-0.7 2.1-0.1 0.7 0.6 0.7 1.6 0.1 2.2z"/>
					<path id="path3249" class="s1" d="m247.8 243.4c-0.5 0.6-1.4 0.8-2.1 0.3-0.7-0.5-0.9-1.5-0.4-2.1 0.5-0.7 1.5-0.9 2.2-0.4 0.7 0.5 0.8 1.5 0.3 2.2z"/>
					<path id="path3251" class="s1" d="m252.5 246c-0.4 0.8-1.4 1-2.1 0.6-0.8-0.3-1-1.3-0.6-2 0.4-0.8 1.3-1.1 2-0.7 0.8 0.4 1.1 1.4 0.7 2.1z"/>
					<path id="path3253" class="s1" d="m257.4 248c-0.2 0.8-1.1 1.2-1.9 0.9-0.8-0.3-1.2-1.2-0.9-2 0.3-0.8 1.1-1.2 1.9-0.9 0.8 0.3 1.2 1.2 0.9 2z"/>
					<path id="path3255" class="s1" d="m259.6 248.6c0.2-0.8 1-1.3 1.9-1.2 0.8 0.2 1.3 1 1.2 1.9-0.2 0.8-1 1.3-1.9 1.1-0.8-0.1-1.3-0.9-1.2-1.8z"/>
					<path id="path3257" class="s1" d="m270.3 249.8c-0.1-0.8 0.6-1.6 1.4-1.6 0.8-0.1 1.6 0.5 1.6 1.4 0.1 0.8-0.5 1.6-1.4 1.6-0.8 0.1-1.6-0.6-1.6-1.4z"/>
					<path id="path3259" class="s1" d="m266.3 251.2c-0.8 0-1.4-0.8-1.4-1.6 0.1-0.9 0.8-1.5 1.7-1.4 0.8 0 1.4 0.8 1.4 1.6-0.1 0.8-0.8 1.5-1.7 1.4z"/>
					<path id="path3261" class="s1" d="m277.4 250.4c-0.8 0.2-1.6-0.3-1.8-1.1-0.2-0.9 0.4-1.7 1.2-1.9 0.8-0.1 1.6 0.4 1.8 1.2 0.2 0.9-0.3 1.7-1.2 1.8z"/>
					<path id="path3263" class="s1" d="m282.8 248.9c-0.8 0.3-1.7-0.1-2-0.9-0.3-0.8 0.1-1.7 0.9-2 0.8-0.3 1.7 0.1 2 0.9 0.3 0.8-0.1 1.7-0.9 2z"/>
					<path id="path3265" class="s1" d="m287.9 246.6c-0.8 0.4-1.7 0.2-2.1-0.6-0.4-0.7-0.1-1.7 0.6-2.1 0.8-0.4 1.7-0.1 2.1 0.7 0.4 0.7 0.1 1.7-0.6 2z"/>
					<path id="path3267" class="s1" d="m292.6 243.7c-0.7 0.5-1.7 0.3-2.2-0.3-0.5-0.7-0.3-1.7 0.4-2.2 0.7-0.5 1.6-0.3 2.1 0.4 0.5 0.6 0.4 1.6-0.3 2.1z"/>
					<path id="path3269" class="s1" d="m296.8 240.1c-0.6 0.6-1.5 0.6-2.1 0-0.6-0.6-0.6-1.6 0-2.2 0.6-0.6 1.6-0.6 2.2 0 0.6 0.7 0.6 1.6-0.1 2.2z"/>
					<path id="path3271" class="s1" d="m300.6 236c-0.6 0.6-1.5 0.8-2.2 0.2-0.6-0.5-0.8-1.4-0.2-2.1 0.5-0.7 1.4-0.8 2.1-0.3 0.7 0.5 0.8 1.5 0.3 2.2z"/>
					<path id="path3273" class="s1" d="m303.7 231.4c-0.4 0.7-1.4 0.9-2.1 0.5-0.7-0.4-1-1.3-0.6-2.1 0.4-0.7 1.4-1 2.1-0.5 0.8 0.4 1 1.3 0.6 2.1z"/>
					<path id="path3275" class="s1" d="m306.1 226.4c-0.3 0.7-1.2 1.1-2 0.8-0.8-0.3-1.1-1.2-0.8-2 0.3-0.8 1.2-1.2 2-0.8 0.8 0.3 1.1 1.2 0.8 2z"/>
					<path id="path3277" class="s1" d="m307.8 221.1c-0.2 0.8-1 1.3-1.8 1.1-0.8-0.2-1.3-1-1.1-1.9 0.2-0.8 1-1.3 1.8-1.1 0.8 0.2 1.3 1 1.1 1.9z"/>
					<path id="path3279" class="s1" d="m307.1 217c-0.8-0.1-1.4-0.9-1.3-1.7 0-0.9 0.8-1.5 1.6-1.4 0.9 0.1 1.5 0.8 1.4 1.7-0.1 0.8-0.8 1.4-1.7 1.4z"/>
					<path id="path3281" class="s1" d="m307.1 211.5c-0.8-0.1-1.4-0.9-1.3-1.7 0-0.9 0.8-1.5 1.6-1.4 0.9 0.1 1.5 0.9 1.4 1.7-0.1 0.8-0.8 1.5-1.7 1.4z"/>
					<path id="path3283" class="s1" d="m307.1 205.9c-0.8-0.1-1.4-0.8-1.3-1.6 0-0.9 0.8-1.5 1.6-1.4 0.9 0.1 1.5 0.8 1.4 1.7-0.1 0.8-0.8 1.4-1.7 1.3z"/>
					<path id="path3285" class="s1" d="m307.1 200.4c-0.8-0.1-1.4-0.8-1.3-1.7 0-0.8 0.8-1.4 1.6-1.3 0.9 0.1 1.5 0.8 1.4 1.6-0.1 0.9-0.8 1.5-1.7 1.4z"/>
					<path id="path3287" class="s1" d="m307.1 194.9c-0.8-0.1-1.4-0.9-1.3-1.7 0-0.8 0.8-1.5 1.6-1.4 0.9 0.1 1.5 0.9 1.4 1.7-0.1 0.9-0.8 1.5-1.7 1.4z"/>
					<path id="path3289" class="s1" d="m307.1 189.4c-0.8-0.1-1.4-0.9-1.3-1.7 0-0.9 0.8-1.5 1.6-1.4 0.9 0.1 1.5 0.9 1.4 1.7-0.1 0.8-0.8 1.4-1.7 1.4z"/>
					<path id="path3291" fill-rule="evenodd" class="s0" d="m191.7 253.4h-1.4v-17.2h1c1.6 0 4 0.6 4 5 0 4.1-2.6 5.9-3.6 6.2zm0-7.2c0.4-0.2 2.2-1.5 2.2-5 0-3.5-1.3-4.1-2.2-4.1z"/>
					<path id="path3293" class="s0" d="m199.1 236.2v16.2h3v1h-4.4v-17.2z"/>
					<path id="path3295" class="s0" d="m204 236.2h1.4v14.1c0 1.7 0.7 2.2 1.2 2.2 0.5 0 1.2-0.5 1.2-2.2v-14.1h1.4v13.7c0 2.8-1.3 3.6-2.6 3.6-1.3 0-2.6-0.8-2.6-3.6z"/>
					<path id="path3297" class="s0" d="m214.3 237.1c-0.8 0-1.5 0.6-1.5 1.8 0 1.4 0.7 2.8 1.6 4.2 1.3 2.1 2.3 3.9 2.3 6.3 0 3.2-2.2 4.1-3.5 4.1-0.8 0-1.4-0.1-1.8-0.4l0.4-0.9c0.4 0.2 0.9 0.3 1.4 0.3 0.8 0 2.1-0.7 2.1-3 0-1.9-1-3.8-1.9-5.2-1.4-2.3-2-3.6-2-5.3 0-1.9 1.2-2.9 2.9-2.9 0.8 0 1.5 0.4 1.5 0.4l-0.4 0.9c-0.3-0.2-0.7-0.3-1.1-0.3z"/>
					<path id="path3299" class="s0" d="m320.4 236h1.4v14.3c0 1.7 0.7 2.2 1.2 2.2 0.5 0 1.3-0.5 1.3-2.2v-14.3h1.4v13.9c0 2.7-1.3 3.6-2.7 3.6-1.3 0-2.6-0.9-2.6-3.6z"/>
					<path id="path3301" class="s0" d="m329 236v16.4h3v1h-4.4v-17.4z"/>
					<path id="path3303" class="s0" d="m334.2 237v16.4h-1.4v-16.4h-2v-1h5.4v1z"/>
					<path id="path3305" fill-rule="evenodd" class="s0" d="m338.7 247.3v6.1h-1.4v-17.4h1.1c1.8 0 4 0.9 4 5.1 0 3.4-1.8 5.1-2.6 5.7 0.5 0.6 1.1 1.5 1.5 2.6 0.6 1.4 0.9 2.9 0.9 4h-1.3c0-1.1-0.3-2.5-0.7-3.5-0.4-1.1-1-2.1-1.5-2.6zm0-1.1c0.5-0.2 2.3-1.5 2.3-5.1 0-3.5-1.3-4.1-2.3-4.1z"/>
					<path id="path3307" fill-rule="evenodd" class="s0" d="m346.5 236l2.7 17.4h-1.4l-0.5-3.3h-2.5l-0.5 3.3h-1.2l2.7-17.4zm-1.6 13h2.3l-1.2-7.9z"/>
					<path id="path3309" class="s2" d="m271.6 260.6c0 1.4-1.1 2.5-2.5 2.5-1.3 0-2.4-1.1-2.4-2.5 0-1.4 1.1-2.5 2.4-2.5 1.4 0 2.5 1.1 2.5 2.5z"/>
					<path id="path3311" class="s2" d="m270.7 254.5c0 0.9-0.7 1.6-1.6 1.6-0.8 0-1.5-0.7-1.5-1.6 0-0.8 0.7-1.5 1.5-1.5 0.9 0 1.6 0.7 1.6 1.5z"/>
					<path id="path3313" class="s2" d="m265.8 269.2c-0.1-0.3-0.3-0.7-0.5-0.8-0.2-0.3-0.5-0.5-0.7-0.7-0.6-0.4-1.2-0.5-1.9-0.5q-0.5 0.1-1 0.2c-0.3 0.1-0.7 0.4-0.8 0.5-0.5 0.4-0.9 0.9-1.1 1.4-0.3 0.5-0.4 1-0.4 1.5q-0.1 0.8 0.1 1.4c0.1 0.4 0.4 0.8 0.5 1.1 0.2 0.2 0.3 0.3 0.4 0.4q0.1 0.2 0.1 0.2 0 0 0 0 0 0 0 0.1l1.4 1.4c0.3 0.3 0.9 0.3 1.2-0.1q0.3-0.2 0.3-0.6v-1.2c-0.6 0-1.7-0.4-2.2-1.4q-0.1-0.2-0.2-0.4-0.1-0.4-0.1-0.8 0-0.5 0.2-1c0.2-0.4 0.4-0.7 0.7-0.9 0.2-0.2 0.7-0.4 1-0.4 0.4 0 0.8 0 1.2 0.2 0.1 0.1 0.3 0.2 0.4 0.4 0.1 0.1 0.2 0.2 0.2 0.2q0 0.1 0.1 0.2 0.1 0.3 0 0.6 0 0 0 0c0 0.4-0.2 0.7-0.5 1q0 0-0.1 0 0 0 0 0-0.2 0.2-0.5 0.2c-0.7 0-1.2-0.5-1.2-1.2 0-0.3 0.1-0.5 0.3-0.7-0.3 0-0.7 0.2-0.8 0.8-0.1 0.3-0.1 0.6 0.1 1q0.1 0.1 0.1 0.3c0.1 0 0.1 0.1 0.2 0.2q0.3 0.2 0.6 0.4c0.4 0.2 1 0.2 1.5 0.1 0.1-0.1 0.3-0.2 0.4-0.3 0.1 0 0.2-0.1 0.3-0.2 0.3-0.2 0.4-0.4 0.5-0.7 0.3-0.6 0.4-1.2 0.2-1.9z"/>
					<path id="path3315" class="s2" d="m270 265.2h-1.8l-0.6 3.5c0 0.8 0.7 1.5 1.5 1.5 0.8 0 1.5-0.7 1.5-1.5z"/>
					<path id="path3317" class="s2" d="m265 266.8c0.7 0.4 1.3 1 1.6 1.7q0-0.2 0-0.3l0.6-2.7q-1.2 0.4-2.2 1.3z"/>
					<path id="path3319" class="s2" d="m267.2 277.8l-0.4-1.3 0.9-0.4v-5.1q-0.5-0.4-0.8-1c-0.1 1.3-0.8 2.5-1.9 3v4.9c0 0.2 0.1 0.5 0.2 0.7z"/>
					<path id="path3321" class="s2" d="m272.8 277.8l-0.4-1.3 0.9-0.4v-0.1c0-3 2-2.4 2-4.9 0-2.4-1.7-4.8-4.2-5.6l0.5 2.6q0 0.3 0.1 0.5v0.1q0 0.1 0 0.1 0 0 0 0c0 0.9-0.5 1.7-1.2 2.2v6.9c0 0.2 0.1 0.5 0.3 0.7 0 0 2-0.8 2-0.8z"/>
					<path id="path3323" class="s0" d="m155 298.7l-2-1.9 7.5-7.8q1.6-1.5 2.6-2.1 1-0.6 1.8-0.8 0.9-0.2 1.8-0.1 3 0.1 5.6 2.7 2.7 2.6 2.9 5.5 0.1 0.9-0.1 1.8-0.2 0.9-0.7 1.8-0.5 1-2.1 2.7l-7.5 7.7-2-1.9 7.5-7.7q1.9-2 2.2-3.2 0.3-1.1-0.2-2.5-0.4-1.3-1.6-2.5-1.8-1.7-3.8-1.8-1-0.1-1.9 0.3-0.9 0.4-2.5 2.1z"/>
					<path id="path3325" class="s0" d="m130.7 265.9l-1.4-2.2 16.3-9.9 1.2 2-5.9 18.5 12.5-7.6 1.4 2.1-16.3 10-1.1-1.9 5.9-18.7z"/>
					<path id="path3327" class="s0" d="m120.3 242.9l-0.9-2.6 18-6.3 0.9 2.5z"/>
					<path id="path3329" class="s0" d="m111.8 206.5l-0.4-2.7 20.1 5.2 0.1 0.6-17.8 10.9-0.4-2.7 12.4-7.6c0 0-14-3.7-14-3.7z"/>
					<path id="path3331" class="s0" d="m110.9 183.1l0.8-10.8 2.4 0.1-0.5 8.1 5.7 0.4 0.6-7.8 2.4 0.2-0.5 7.8 5.9 0.4 0.5-8.4 2.5 0.2-0.8 11z"/>
					<path id="path3333" fill-rule="evenodd" class="s0" d="m133.8 156l-18.3-5.4 1.3-4.5q0.8-2.8 2.7-4 1.8-1.3 4.2-0.6 1.6 0.5 2.5 1.6 0.9 1.1 1.1 2.8 0.8-0.7 2-1.2 1.3-0.6 4.2-1.4 1.8-0.5 2.8-0.8l1.6-0.6-0.9 3.1-1.5 0.4q0 0.1-0.2 0.1l-0.9 0.3-1.6 0.4-1.7 0.5q-1.3 0.5-2.2 1-0.9 0.4-1.3 0.9-0.5 0.5-0.8 1.7l-0.2 0.7 7.9 2.4c0 0-0.7 2.6-0.7 2.6zm-15.1-8.1l-0.2 0.8 5.7 1.7 0.3-1q0.6-2 0.5-2.9-0.1-0.8-0.7-1.4-0.6-0.6-1.5-0.9-0.8-0.2-1.6 0-0.9 0.3-1.4 1-0.5 0.8-1.1 2.7z"/>
					<path id="path3335" class="s0" d="m139.9 118.6l-2.1 1.2q-2 1.2-3.4 1.3-1.4 0.2-2.7-0.5-2-1.1-2.5-3.1-0.5-2 0.7-4.2 1.2-2.1 3.3-3.2l2.7 1.4q-2.7 0.9-3.8 3-0.7 1.2-0.6 2.2 0.2 1 1 1.5 0.8 0.4 1.7 0.2 1-0.2 2.4-1l2.1-1.3q3.5-2 6.3-0.5 2 1.1 2.5 3.1 0.6 2-0.6 4.2-1.4 2.5-4 3.7l-3-1.7q3.5-0.6 4.9-3.1 0.6-1.1 0.3-2.2-0.2-1.1-1.1-1.6-1.5-0.9-4.1 0.6z"/>
					<path id="path3337" class="s0" d="m144.6 91.4l1.7-2.1 14.9 11.9-1.7 2.1z"/>
					<path id="path3339" class="s0" d="m160.4 73.8l12.1-10.3 1.6 1.8-5.1 4.3 10.8 12.7-2.1 1.7-10.8-12.6-4.9 4.2z"/>
					<path id="path3341" fill-rule="evenodd" class="s0" d="m193.1 50.1l1.7-0.9 16.6 12.8-2.5 1.3-4.9-3.7-7.2 3.8 0.6 6.1-2.4 1.4zm8.8 7.8l-6-4.6 0.7 7.4z"/>
					<path id="path3343" class="s0" d="m229.4 47.3l-2.3-0.7q-2.2-0.6-3.3-1.5-1.1-0.8-1.5-2.3-0.7-2.1 0.5-3.9 1.1-1.8 3.5-2.5 2.3-0.6 4.6 0.1l0.8 3q-2.5-1.3-4.8-0.7-1.3 0.4-1.9 1.2-0.7 0.8-0.4 1.7 0.2 0.9 1 1.4 0.8 0.6 2.4 1l2.3 0.6q3.9 1 4.8 4.1 0.6 2.2-0.4 4-1.1 1.8-3.5 2.5-2.7 0.8-5.4-0.3l-0.9-3.3q2.8 2.1 5.6 1.3 1.3-0.3 1.9-1.3 0.6-0.9 0.3-1.9-0.4-1.7-3.3-2.5z"/>
					<path id="path3345" class="s0" d="m269.4 36.3q0.6 0 1.1 0.2 0.5 0.3 0.9 0.7 0.4 0.4 0.6 0.9 0.3 0.6 0.2 1.2 0 0.6-0.2 1.1-0.2 0.5-0.6 0.9-0.4 0.4-1 0.6-0.5 0.3-1.1 0.3-0.6-0.1-1.1-0.3-0.6-0.2-1-0.6-0.4-0.4-0.6-1-0.2-0.5-0.2-1.1 0-0.6 0.2-1.2 0.3-0.5 0.7-0.9 0.4-0.4 0.9-0.6 0.6-0.2 1.2-0.2z"/>
					<path id="path3347" class="s0" d="m312.7 46.9l6.1 1.8-2.2 7.8q-3.8 0.5-7.2-0.5-4.5-1.3-6.5-4.8-1.9-3.4-0.8-7.3 1.2-4.1 4.8-6 3.6-1.9 7.9-0.7 1.5 0.5 2.8 1.2 1.3 0.8 3.2 2.3l-0.8 2.6q-2.7-2.8-6-3.8-3-0.8-5.6 0.6-2.7 1.5-3.5 4.4-0.9 3.1 0.6 5.7 1.4 2.6 4.7 3.5 1.5 0.5 3.9 0.4h0.3l1.1-3.8-3.5-1c0 0 0.7-2.4 0.7-2.4z"/>
					<path id="path3349" fill-rule="evenodd" class="s0" d="m331.5 64.4l9.3-16.6 4.1 2.3q2.6 1.4 3.3 3.5 0.8 2.1-0.4 4.2-0.8 1.5-2.1 2.1-1.3 0.7-3 0.4 0.5 1 0.8 2.3 0.3 1.4 0.4 4.4 0.1 1.9 0.2 2.9l0.2 1.7-2.8-1.6-0.1-1.5q-0.1-0.1-0.1-0.3l-0.1-0.9v-1.6l-0.1-1.8q-0.2-1.4-0.4-2.4-0.3-0.9-0.7-1.5-0.3-0.5-1.5-1.1l-0.6-0.4-4 7.2c0 0-2.4-1.3-2.4-1.3zm11.2-12.9l-0.7-0.4-2.9 5.3 0.9 0.5q1.8 1 2.6 1.1 0.9 0 1.6-0.4 0.7-0.4 1.2-1.2 0.4-0.8 0.4-1.6-0.1-0.9-0.7-1.6-0.6-0.7-2.4-1.7z"/>
					<path id="path3351" fill-rule="evenodd" class="s0" d="m374.4 70.7l1.4 1.3-6.5 19.9-2.1-1.8 1.9-5.9-6-5.5-5.6 2.6-2.1-1.8zm-4.4 10.9l2.3-7.2-6.7 3.2z"/>
					<path id="path3353" class="s0" d="m403.1 104.6l1.5 2.2-15.7 10.8-1.3-2 4.8-18.8-12 8.3-1.5-2.1 15.7-10.8 1.2 1.9-4.9 18.9z"/>
					<path id="path3355" fill-rule="evenodd" class="s0" d="m416.6 131.2l0.6 1.8-14.8 14.8-1-2.6 4.4-4.4-2.9-7.5-6.1-0.2-1.1-2.7zm-8.9 7.8l5.4-5.4-7.5-0.2z"/>
					<path id="path3357" class="s0" d="m423.9 155l2.6 15.7-2.4 0.4-1.1-6.5-16.4 2.7-0.4-2.7 16.4-2.7-1.1-6.5z"/>
					<path id="path3359" class="s0" d="m427.4 189.5l-0.3 10.8-2.5-0.1 0.3-8-5.8-0.2-0.3 7.8-2.4-0.1 0.3-7.8-6-0.2-0.2 8.3-2.5-0.1 0.4-11c0 0 19 0.6 19 0.6z"/>
					<path id="path3361" class="s0" d="m420.7 234.9l-0.6 2.5-18.5-4.8 0.6-2.3 17.4-8.6-14.2-3.7 0.7-2.5 18.4 4.8-0.6 2.1-17.5 8.8z"/>
					<path id="path3363" class="s0" d="m400.1 256.1l2.1-1.2q1.9-1.2 3.3-1.4 1.4-0.2 2.8 0.4 2 1.1 2.5 3.1 0.5 2-0.6 4.2-1.1 2.2-3.2 3.3l-2.7-1.4q2.7-0.9 3.7-3 0.7-1.2 0.5-2.3-0.2-1-1-1.5-0.8-0.3-1.7-0.1-1 0.2-2.4 1.1l-2 1.3q-3.4 2.1-6.3 0.7-2-1.1-2.6-3.1-0.6-2 0.5-4.2 1.3-2.5 3.9-3.8l3.1 1.6q-3.5 0.7-4.8 3.3-0.6 1.1-0.4 2.2 0.3 1.1 1.2 1.6 1.6 0.8 4.1-0.8z"/>
					<path id="path3365" class="s0" d="m397.2 281.9l-1.6 2.2-15.3-11.3 1.6-2.2z"/>
					<path id="path3367" class="s0" d="m371.2 295l2.4-0.6q2.2-0.5 3.6-0.2 1.4 0.3 2.4 1.3 1.6 1.6 1.5 3.7-0.2 2.1-2 3.9-1.7 1.6-4 2.1l-2.2-2.3q2.9 0 4.6-1.6 0.9-1 1.1-2 0.2-1-0.5-1.7-0.6-0.6-1.5-0.7-1-0.1-2.6 0.2l-2.3 0.6q-4 0.9-6.2-1.4-1.6-1.6-1.5-3.7 0.1-2.1 1.8-3.8 2.1-2 4.9-2.3l2.4 2.4q-3.5-0.4-5.6 1.6-0.9 0.9-1 2-0.1 1.1 0.6 1.9 1.2 1.2 4.1 0.6z"/>
					<path id="path3369" class="s0" d="m199.6 317.7q0.5 0.3 0.8 0.8 0.4 0.4 0.6 1 0.1 0.5 0.1 1.1-0.1 0.5-0.4 1.1-0.3 0.5-0.7 0.9-0.5 0.3-1 0.5-0.6 0.2-1.1 0.1-0.6 0-1.1-0.3-0.6-0.3-0.9-0.8-0.4-0.4-0.6-1-0.1-0.5-0.1-1.1 0.1-0.6 0.4-1.1 0.2-0.6 0.7-0.9 0.5-0.4 1-0.5 0.6-0.2 1.1-0.1 0.6 0 1.2 0.3z"/>
					<path id="path3371" class="s0" d="m231.7 322.3l2.6 0.7-4.9 18.4-2.6-0.7z"/>
					<path id="path3373" class="s0" d="m252.8 326.5l8.4 0.8-0.2 2.4-6-0.5-0.4 4.7q0.3 0 0.6 0.1 2.8 0.2 4.4 2 1.6 1.9 1.4 4.5-0.2 2.6-2.1 4.2-1.9 1.5-4.7 1.3-2.4-0.2-4.4-1.6l0.2-2.8q2 1.6 3.9 1.7 1.7 0.2 3-0.7 1.2-0.9 1.3-2.4 0.2-1.5-1-2.6-1.2-1.1-3.1-1.3-1.6-0.1-2.2 0.1c0 0 0.9-9.9 0.9-9.9z"/>
					<path id="path3375" class="s0" d="m280 335h0.1q1.8-0.2 2.7-1 0.8-0.8 0.7-2.2-0.1-1.3-1.1-2-0.9-0.7-2.4-0.6-1.5 0.2-3.2 1.3l-0.2-2.6q1.6-1 3.5-1.2 2.6-0.2 4.3 1 1.6 1.3 1.8 3.6 0.1 1.5-0.4 2.5-0.5 1.1-1.7 1.9 1.2 0.3 1.7 0.9 0.6 0.6 1 1.5 0.3 0.8 0.4 1.8 0.2 2.5-1.3 4.3-1.5 1.8-4 2-2.2 0.2-4.3-0.7l-0.2-3q2.2 1.2 4.2 1 1.4-0.1 2.2-1 0.7-0.9 0.6-2.2-0.1-1.2-0.8-1.9-0.5-0.5-1-0.7-0.5-0.1-2.2-0.2h-0.2c0 0-0.2-2.5-0.2-2.5z"/>
					<path id="path3377" class="s0" d="m303.6 323.1l2.6-0.7 4.9 18.4-2.6 0.7z"/>
					<path id="path3379" class="s0" d="m338.2 318q0.5-0.3 1.1-0.3 0.6-0.1 1.1 0.1 0.5 0.2 1 0.5 0.4 0.4 0.7 0.9 0.3 0.6 0.4 1.1 0 0.6-0.1 1.1-0.2 0.6-0.6 1-0.3 0.5-0.9 0.8-0.5 0.3-1.1 0.3-0.6 0.1-1.1-0.1-0.5-0.2-1-0.5-0.5-0.4-0.7-0.9-0.3-0.6-0.4-1.1 0-0.6 0.1-1.2 0.2-0.5 0.6-1 0.3-0.4 0.9-0.7z"/>
					<path id="path3381" fill-rule="evenodd" class="s2" d="m287.3 82.5c-1.3-2.6-3.9-3.8-6-3.2-2.9-1.3-7.1-2.1-12.1-2.1-5.1 0-9.3 0.8-12.2 2.1q0 0 0 0c-2-0.7-4.8 0.6-6 3.2-1.2 2.5-0.5 6.1 1.9 7.1 2.2 0.9 4.6 1 7.9 1q0 0 0 0h3.5c1.6 0.2 3.2 0.3 4.9 0.3 1.7 0 3.4-0.1 5-0.3h3.3q0 0 0 0c3.2 0 5.6-0.1 7.9-1 2.4-1 3.1-4.6 1.9-7.1z"/>
					<path id="path3383" fill-rule="evenodd" class="s3" d="m269.9 81.3c0-2.5 2.6-4.3 4.8-4 2.7 0.3 4.6 2.8 3.9 5.4-0.5 2.3-1.4 4.4-2.3 6.5-0.7 1.5-4.7 2.3-5.8 1.3-0.4-0.3-0.6-1-0.6-1.6z"/>
					<path id="path3385" fill-rule="evenodd" class="s3" d="m281.2 79.3c2.1-0.7 4.8 0.6 6.1 3.2 1.2 2.5 0.5 6.1-1.9 7.1-2.3 0.9-4.7 1-7.9 1 1.1-4 2.6-7.2 3.7-11.3z"/>
					<path id="path3387" fill-rule="evenodd" class="s3" d="m268.4 81.3c0-2.5-2.7-4.3-4.9-4-2.6 0.3-4.6 2.8-3.9 5.4 0.6 2.3 1.4 4.4 2.4 6.5 0.6 1.5 4.6 2.3 5.8 1.3 0.4-0.3 0.6-1 0.6-1.6z"/>
					<path id="path3389" fill-rule="evenodd" class="s3" d="m257 79.3c-2-0.7-4.8 0.6-6 3.2-1.2 2.5-0.5 6.1 1.9 7.1 2.2 0.9 4.6 1 7.9 1-1.1-4-2.6-7.2-3.8-11.3z"/>
					<path id="path3391" class="s2" d="m272.9 71.1h-2.6v-2.6h-2.3v2.6h-2.7v2.3h2.7v2.7h2.3v-2.7h2.6z"/>
					<path id="path3393" fill-rule="evenodd" class="s2" d="m258.5 94.8c0 0.8-0.7 1.5-1.5 1.5-0.8 0-1.5-0.7-1.5-1.5 0-0.9 0.7-1.6 1.5-1.6 0.8 0 1.5 0.7 1.5 1.6z"/>
					<path id="path3395" fill-rule="evenodd" class="s2" d="m261.6 94.8c0 0.8-0.7 1.5-1.6 1.5-0.8 0-1.5-0.7-1.5-1.5 0-0.9 0.7-1.6 1.5-1.6 0.9 0 1.6 0.7 1.6 1.6z"/>
					<path id="path3397" fill-rule="evenodd" class="s2" d="m264.6 94.8c0 0.8-0.7 1.5-1.5 1.5-0.9 0-1.5-0.7-1.5-1.5 0-0.9 0.6-1.6 1.5-1.6 0.8 0 1.5 0.7 1.5 1.6z"/>
					<path id="path3399" fill-rule="evenodd" class="s2" d="m267.6 94.8c0 0.8-0.6 1.5-1.5 1.5-0.8 0-1.5-0.7-1.5-1.5 0-0.9 0.7-1.6 1.5-1.6 0.9 0 1.5 0.7 1.5 1.6z"/>
					<path id="path3401" fill-rule="evenodd" class="s2" d="m270.7 94.8c0 0.8-0.7 1.5-1.5 1.5-0.9 0-1.6-0.7-1.6-1.5 0-0.9 0.7-1.6 1.6-1.6 0.8 0 1.5 0.7 1.5 1.6z"/>
					<path id="path3403" fill-rule="evenodd" class="s2" d="m273.7 94.8c0 0.8-0.7 1.5-1.5 1.5-0.8 0-1.5-0.7-1.5-1.5 0-0.9 0.7-1.6 1.5-1.6 0.8 0 1.5 0.7 1.5 1.6z"/>
					<path id="path3405" fill-rule="evenodd" class="s2" d="m276.8 94.8c0 0.8-0.7 1.5-1.6 1.5-0.8 0-1.5-0.7-1.5-1.5 0-0.9 0.7-1.6 1.5-1.6 0.9 0 1.6 0.7 1.6 1.6z"/>
					<path id="path3407" fill-rule="evenodd" class="s2" d="m279.8 94.8c0 0.8-0.7 1.5-1.5 1.5-0.9 0-1.5-0.7-1.5-1.5 0-0.9 0.6-1.6 1.5-1.6 0.8 0 1.5 0.7 1.5 1.6z"/>
					<path id="path3409" fill-rule="evenodd" class="s2" d="m282.8 94.8c0 0.8-0.6 1.5-1.5 1.5-0.8 0-1.5-0.7-1.5-1.5 0-0.9 0.7-1.6 1.5-1.6 0.9 0 1.5 0.7 1.5 1.6z"/>
					<path id="path3411" class="s0" d="m58.5 407.2c-4.4 0.4-6.2 1.2-6.5 4.4-0.3 2.2-0.5 5.2-0.5 11.6v5.3c0 6.7-1.3 12.8-5.2 16.7-3.3 3.3-8.1 5.1-13.2 5.1-4.6 0-8.9-1-12.3-3.6-4-3-6.2-8-6.2-16v-15.8c0-6.7-0.6-7-6.7-7.7v-2.7h21.7v2.7c-6 0.7-6.4 1-6.4 7.7v13.6c0 11.1 4.3 16.8 12.2 16.8 8.3 0 12.3-6.3 12.3-17.5v-4.5c0-6.6-0.2-9.5-0.5-11.7-0.4-3.2-2-4-7.4-4.4v-2.7h18.7z"/>
					<path id="path3413" class="s0" d="m114.7 407.3c-4.5 0.3-6.3 1-6.6 4-0.3 2.6-0.6 5.7-0.6 12.3v25.9h-3.5l-28.9-34.5h-0.1v14.8c0 6.7 0.3 10.1 0.6 12.4 0.4 2.9 2.2 3.8 7.5 4.2v2.6h-18.9v-2.6c4.4-0.4 6.1-1.3 6.5-4.2 0.3-2.3 0.7-5.7 0.7-12.4v-12.8c0-7.9-1.6-9.3-8.2-9.7v-2.8h13.7l26.8 30.7h0.2v-11.6c0-6.6-0.3-9.7-0.6-12.1-0.3-3.2-1.9-3.9-7.3-4.2v-2.8h18.7c0 0 0 2.8 0 2.8z"/>
					<path id="path3415" class="s0" d="m120.8 449v-2.6c6-0.6 6.7-1 6.7-7.8v-23.6c0-6.9-0.7-7.2-6.7-7.7v-2.8h22v2.8c-6.2 0.5-6.7 0.8-6.7 7.7v23.6c0 6.8 0.5 7.2 6.7 7.8v2.6z"/>
					<path id="path3417" class="s0" d="m199.4 407.3c-5.1 0.8-6.2 1.5-9.2 7.5-2.8 5.8-9.1 21-14.8 35.2h-3.1c-5-12.4-11.4-27.6-15.2-36.7-2.1-5-3.6-5.5-7.8-6v-2.8h21v2.8l-2.6 0.5c-2.6 0.4-3 1.1-1.7 4.3 1.8 4.8 6.6 16.2 10.7 26.3 3.2-7.8 8.5-21.2 9.9-25.9 1.3-3.6 0.9-4.4-2.6-4.9l-2.1-0.3v-2.8h17.5z"/>
					<path id="path3419" class="s0" d="m245.5 437.1c-0.6 3-2 10-2.6 11.9h-37.6v-2.6c6.7-0.6 7.2-1.2 7.2-8v-23.4c0-6.9-0.5-7.3-6.5-7.7v-2.8h35.1c0.1 1.9 0.4 6.6 0.7 11.1l-2.6 0.2c-0.9-3-1.7-4.5-2.7-5.7-1.3-1.7-2.9-2.3-7.9-2.3h-4.7c-2.6 0-2.8 0.2-2.8 2.7v13.6h6.7c5.7 0 6.2-0.6 7.1-5.3h2.7v14.6h-2.7c-0.9-4.8-1.4-5.6-7.1-5.6h-6.7v10.8c0 3.7 0.5 5.6 1.6 6.2 1.3 0.8 3.5 1.1 7.4 1.1 4.7 0 7.1-0.6 8.8-2.5 1.2-1.2 2.5-3.3 3.7-6.7z"/>
					<path id="path3421" fill-rule="evenodd" class="s0" d="m298.5 449.6h-2.4c-8.3 0-11.3-2.2-14-6.2-2.2-3.1-4.7-7.5-6.3-10-1.6-2.8-2.5-3.5-6.1-3.5h-1.9v8.8c0 6.6 0.6 7.1 6.8 7.7v2.6h-22v-2.6c6.2-0.5 6.8-1 6.8-7.7v-23.9c0-6.8-0.6-7.1-6.5-7.5v-2.8h22c5 0 8.5 0.6 11.5 2.4 2.8 1.6 4.8 4.8 4.8 9.1 0 6.2-4.4 9.7-9.1 11.4 1.1 2.1 4.2 7 6.4 10.2 2.3 3.4 3.6 5 5.3 6.8 1.5 1.6 3.3 2.3 5.1 2.9zm-27.1-22.7c2.7 0 5-0.4 6.9-1.6 2.5-1.6 3.7-4.5 3.7-8 0-6.9-4.6-9.7-9.9-9.7-3.8 0-4.3 0.8-4.3 3.6v15.7z"/>
					<path id="path3423" class="s0" d="m329.7 416.9c-1.9-5.8-4.8-10.5-10.5-10.5-4.4 0-7.1 3.3-7.1 6.9 0 4.9 3.8 6.7 8.2 8.5l1.9 0.9c6.7 2.6 12.5 6 12.5 13.6 0 8.2-7.2 14-17 14-6.3 0-10.9-2.4-12.6-3.4-0.6-1.7-1.7-7.2-2.3-12.1l2.8-0.7c1.7 5.6 6.1 13 13.3 13 4.6 0 7.7-3.1 7.8-7.4 0-4.9-3.7-7-7.7-8.7l-2.4-1.1c-5.2-2.3-12-5.8-12-13.1 0-8 6.1-13.5 16.2-13.5 4.5 0 8.3 1.3 10.1 1.9 0.5 2.9 0.9 6.3 1.6 11.3z"/>
					<path id="path3425" class="s0" d="m342.1 449v-2.6c6.1-0.6 6.7-1 6.7-7.8v-23.6c0-6.9-0.6-7.2-6.7-7.7v-2.8h22v2.8c-6.1 0.5-6.7 0.8-6.7 7.7v23.6c0 6.8 0.5 7.2 6.7 7.8v2.6z"/>
					<path id="path3427" fill-rule="evenodd" class="s0" d="m394.6 404.5c8.2 0 15.4 1.6 20.2 6.1 3.5 3.1 6 8.3 6 14.6 0 16.4-13.3 23.8-29.2 23.8h-19.7v-2.6c6.3-0.5 6.9-1.1 6.9-7.8v-23.6c0-6.9-0.5-7.3-6.3-7.7v-2.8zm-7.1 33.8c0 6 1.5 7.5 6.6 7.5 10.8 0 16.9-7.5 16.9-19.2 0-13.8-7.5-18.9-17.6-18.9-2.7 0-4.5 0.4-5.1 1.1-0.6 0.6-0.8 1.9-0.8 4.4z"/>
					<path id="path3429" fill-rule="evenodd" class="s0" d="m453.3 449v-2.6l1.9-0.3c2.7-0.4 3.3-1.2 2.1-4.5l-2.7-6.9h-15.5c-0.8 1.9-1.5 4-2.3 6.6-1 3.5-0.1 4.3 2.7 4.7l2.3 0.4v2.6h-17.5v-2.6c4.4-0.6 6.2-1.2 9-8l14.3-34.5 3.4-0.7 15 36.8c2.1 5.3 3.9 6 8.3 6.4v2.6zm-6.4-34.6h-0.2l-6.3 16.5h12.7z"/>
					<path id="path3431" fill-rule="evenodd" class="s0" d="m502.2 404.5c8.2 0 15.3 1.6 20.2 6.1 3.5 3.1 5.9 8.3 5.9 14.6 0 16.4-13.2 23.8-29.1 23.8h-19.7v-2.6c6.2-0.5 6.9-1.1 6.9-7.8v-23.6c0-6.9-0.6-7.3-6.3-7.7v-2.8zm-7.2 33.8c0 6 1.6 7.5 6.7 7.5 10.8 0 16.8-7.5 16.8-19.2 0-13.8-7.4-18.9-17.5-18.9-2.7 0-4.5 0.4-5.1 1.1-0.6 0.6-0.9 1.9-0.9 4.4z"/>
					<path id="path3433" fill-rule="evenodd" class="s0" d="m31 482c8.2 0 15.4 1.6 20.2 6.1 3.5 3.1 6 8.3 6 14.6 0 16.4-13.3 23.8-29.2 23.8h-19.7v-2.6c6.3-0.5 6.9-1.1 6.9-7.8v-23.6c0-6.9-0.5-7.3-6.3-7.7v-2.8zm-7.1 33.8c0 6 1.5 7.5 6.6 7.5 10.8 0 16.9-7.5 16.9-19.2 0-13.8-7.5-18.9-17.6-18.9-2.7 0-4.5 0.4-5.1 1.1-0.6 0.6-0.8 1.9-0.8 4.4z"/>
					<path id="path3435" class="s0" d="m102 514.6c-0.6 3-2 10-2.6 11.9h-37.6v-2.6c6.7-0.6 7.2-1.2 7.2-8v-23.4c0-6.9-0.5-7.3-6.5-7.7v-2.8h35.1c0.1 1.9 0.4 6.6 0.7 11.1l-2.6 0.2c-0.9-3-1.7-4.5-2.7-5.7-1.3-1.7-2.9-2.3-7.8-2.3h-4.8c-2.6 0-2.8 0.2-2.8 2.7v13.6h6.7c5.7 0 6.2-0.6 7.1-5.3h2.7v14.6h-2.7c-0.9-4.8-1.4-5.6-7.1-5.6h-6.7v10.8c0 3.7 0.5 5.6 1.6 6.2 1.3 0.8 3.5 1.1 7.4 1.1 4.7 0 7.1-0.6 8.8-2.5 1.2-1.2 2.5-3.3 3.7-6.7z"/>
					<path id="path3437" class="s0" d="m173.8 504.1c-4.9 0.9-5.2 1.2-5.2 6.7v6.7c0 2.8 0.2 5.5 0.7 7.2-5.4 1.3-12.7 3.3-18.8 3.3-18.5 0-31.2-10.6-31.2-26.6 0-18.6 15.7-27.8 32.1-27.8 7 0 13.3 1.7 16.1 2.3 0.3 2.7 0.7 7.4 1.4 14.1l-3.1 0.4c-2-9.7-8.1-13.2-16.5-13.2-10.7 0-19.4 8.3-19.4 22.7 0 12.1 6.6 24.5 21.2 24.5 3.7 0 8.5-1 8.5-5.4v-8c0-5.3-0.5-6-9.4-6.9v-3h23.6z"/>
					<path id="path3439" fill-rule="evenodd" class="s0" d="m231.5 527.2h-2.6c-8.8 0-12.4-2.4-15.7-7.2-2.6-3.6-5.6-8.8-7.1-11.5-2-3.4-3.2-4.2-7.4-4.2h-2.6v10.4c0 7.6 0.7 8.3 8 8.8v3h-24.7v-3c7.3-0.5 7.9-1.1 7.9-8.8v-27.7c0-8.1-0.6-8.4-7.6-8.9v-3h24.5c5.6 0 9.7 0.6 13 2.7 3.2 1.9 5.6 5.6 5.6 10.6 0 7.2-5.2 11.3-10.5 13.3 1.2 2.2 4.8 8 7.3 11.5 2.8 4 4.2 5.8 6.1 7.8 1.9 2 4.1 3 6.1 3.7zm-30.8-26.3c3.1 0 5.8-0.5 8.1-1.8 2.9-1.8 4.3-5.5 4.3-9.3 0-8.1-5.4-11.4-11.9-11.4-4.6 0-5.1 1-5.1 4.4v18.1z"/>
					<path id="path3441" fill-rule="evenodd" class="s0" d="m267.7 526.5v-3l2-0.2c3.3-0.4 4-1.3 2.5-5.3l-3.2-8.3h-18.1c-0.9 2.2-1.8 4.9-2.6 7.9-1.4 4.3-0.3 5.2 2.9 5.6l2.7 0.3v3h-20.1v-3c5.1-0.5 7.2-1.3 10.6-9.4l16.3-39.8 3.4-0.8 17.1 42.5c2.6 6.5 4.7 7.2 9.7 7.5v3zm-7.7-40.6h-0.2l-7.3 19.4h14.8z"/>
					<path id="path3443" class="s0" d="m353.3 478.1c-5.3 0.4-7.3 1.3-7.6 4.8-0.4 2.9-0.7 6.6-0.7 14.2v30h-3.7l-33.4-40.3-0.1 0.1v17.4c0 7.7 0.2 11.8 0.7 14.4 0.3 3.4 2.4 4.4 8.5 4.8v3h-21.6v-3c5.1-0.4 7.1-1.4 7.5-4.7 0.4-2.7 0.7-6.8 0.7-14.5v-14.8c0-9.2-1.8-10.9-9.4-11.4v-3h15.1l31.4 36.2h0.2v-14.2c0-7.6-0.2-11.3-0.6-14.1-0.4-3.6-2.2-4.5-8.5-4.9v-3h21.5c0 0 0 3 0 3z"/>
					<path id="path3445" fill-rule="evenodd" class="s0" d="m387.8 526.5v-3l2-0.2c3.3-0.4 4-1.3 2.6-5.3l-3.2-8.3h-18.1c-0.9 2.2-1.8 4.9-2.7 7.9-1.3 4.3-0.2 5.2 3 5.6l2.7 0.3v3h-20.1v-3c5.1-0.5 7.2-1.3 10.5-9.4l16.3-39.8 3.5-0.8 17.1 42.5c2.5 6.5 4.6 7.2 9.6 7.5v3zm-7.6-40.6h-0.3l-7.3 19.4h14.9z"/>
					<path id="path3447" fill-rule="evenodd" class="s0" d="m441.3 475.1c9.5 0 17.7 1.8 23.3 6.9 4 3.7 6.9 9.7 6.9 17 0 19-15.3 27.5-33.4 27.5h-22.3v-3c7.3-0.5 8.1-1.2 8.1-9.1v-27.1c0-8.3-0.7-8.7-7.5-9.2v-3zm-8.4 39c0 7.1 1.9 8.8 8.1 8.8 13.2 0 20.1-8.8 20.1-22.3 0-16.2-8.9-22-21.1-22-3.2 0-5.3 0.6-6.1 1.3-0.6 0.8-1 2.3-1 5.3z"/>
					<path id="path3449" fill-rule="evenodd" class="s0" d="m507.3 526.5v-3l2-0.2c3.3-0.4 4-1.3 2.6-5.3l-3.3-8.3h-18c-0.9 2.2-1.8 4.9-2.7 7.9-1.3 4.3-0.2 5.2 3 5.6l2.6 0.3v3h-20v-3c5.1-0.5 7.2-1.3 10.5-9.4l16.3-39.8 3.5-0.8 17 42.5c2.6 6.5 4.7 7.2 9.7 7.5v3zm-7.7-40.6h-0.2l-7.3 19.4h14.9z"/>
				</g>
			</g>
		</g>
	</g>
</svg>